<svg xmlns="http://www.w3.org/2000/svg" viewBox="0 0 51.44 49.86"><defs><style>.cls-1{fill:#00747e;}</style></defs><title>Aflevere-bla</title><g id="Layer_2" data-name="Layer 2"><g id="Layer_1-2" data-name="Layer 1"><path class="cls-1" d="M8.68,12.39,18,17.86S24.32,7,25.7,5.13c-1.87-2-4-4.85-6.92-5.11A4.44,4.44,0,0,0,14.7,1.63L8.13,12Z"/><path class="cls-1" d="M22.4.34l11.84,0A3.57,3.57,0,0,1,37.4,2c1.13,1.78,3.25,5.53,3.25,5.53L44.8,5.08,38.38,16l-12.23-.6,4.39-2.51S27,3.55,22.4.34Z"/><path class="cls-1" d="M44.27,14.44l-9.14,5.71s6.76,10.67,7.74,12.74c2.64-.74,6.14-1.31,7.72-3.79a4.46,4.46,0,0,0,.46-4.37L44.83,14.11Z"/><path class="cls-1" d="M48.64,32.16,43.15,42.65a3.55,3.55,0,0,1-2.86,2.08c-2.1.18-6.41.34-6.41.34l.24,4.79L27.39,39.15l6.16-10.59.22,5.06S43.66,34.8,48.64,32.16Z"/><path class="cls-1" d="M23.53,44.92,24,34.16s-12.62-.45-14.88-.8C8.2,36,6.69,39.17,7.85,41.87a4.45,4.45,0,0,0,3.35,2.84l12.28.86Z"/><path class="cls-1" d="M6.43,38.54.87,28.08a3.56,3.56,0,0,1-.11-3.53c1-1.84,3.33-5.48,3.33-5.48L0,16.56l12.64.49,5.27,11.06-4.29-2.68S7.06,32.93,6.43,38.54Z"/></g></g></svg>