<svg xmlns="http://www.w3.org/2000/svg" viewBox="0 0 126.66 122.77"><defs><style>.cls-1{fill:#fff;}</style></defs><title>Aflvere-hvid</title><g id="Layer_2" data-name="Layer 2"><g id="Layer_1-2" data-name="Layer 1"><path class="cls-1" d="M21.36,30.49,44.21,44S59.88,17.13,63.28,12.63C58.68,7.7,53.46.69,46.24.05c-3.5-.31-8.05.78-10.05,4L20,29.64Z"/><path class="cls-1" d="M55.14.85,84.3,1a8.72,8.72,0,0,1,7.78,3.89c2.79,4.37,8,13.61,8,13.61l10.2-6L94.5,39.36,64.37,37.9l10.82-6.19S66.56,8.75,55.14.85Z"/><path class="cls-1" d="M109,35.55,86.51,49.61s16.62,26.28,19,31.37c6.5-1.82,15.13-3.22,19-9.33,1.89-3,3-7.51,1.12-10.75L110.37,34.75Z"/><path class="cls-1" d="M119.76,79.18,106.23,105a8.73,8.73,0,0,1-7,5.11c-5.17.47-15.77.85-15.77.85l.59,11.8L67.45,96.39,82.62,70.31l.52,12.46S107.49,85.68,119.76,79.18Z"/><path class="cls-1" d="M57.93,110.61,59,84.11s-31.07-1.11-36.64-2c-2.17,6.39-5.88,14.31-3,21,1.39,3.23,4.5,6.72,8.25,7l30.23,2.1Z"/><path class="cls-1" d="M15.82,94.88,2.14,69.14a8.74,8.74,0,0,1-.26-8.7c2.53-4.53,8.2-13.5,8.2-13.5L0,40.77,31.13,42l13,27.23L33.53,62.62S17.38,81.08,15.82,94.88Z"/></g></g></svg>