<svg xmlns="http://www.w3.org/2000/svg" viewBox="0 0 221.16 112.78"><defs><style>.cls-1{fill:#fff;}</style></defs><title>Arhus-Logo-hvid</title><g id="Layer_2" data-name="Layer 2"><g id="Layer_1-2" data-name="Layer 1"><path class="cls-1" d="M25.76,70.82a1.45,1.45,0,0,0-.1-.18l-.14-.15a1.67,1.67,0,0,0-.58.42c-.32.46.33,1.5.33,1.5a1.27,1.27,0,0,1-.9-1,4.92,4.92,0,0,1,.38-1.37,14.2,14.2,0,0,0,.38-1.48c.14-.55.26-1.11.44-1.77.37-1.29.92-2.75,1.23-4a20.66,20.66,0,0,0,.46-2.37c.14-1.4.31-4,.41-5.74a3.69,3.69,0,0,0,0-.77c0-.22.13-2.56,1.24-3.53.74-.64,1.43-.53,2.27-.93a5,5,0,0,0-2.69-.16s-2.56,2-3.78,11c0,0-1.5,8.36-1.55,9.21a25.14,25.14,0,0,0,.4,2.56,6.88,6.88,0,0,0,1.57.51c.17-.06.4-.07.78-.18a1.77,1.77,0,0,1,1.28.08c-1.56-.7-1.25-1.24-1.46-1.63"/><path class="cls-1" d="M36.66,40.82l1.54.06c.46,0,.74-.12.71-.42s-.68-.37-.68-.37l-1.12.17s-.13.47-.45.56"/><path class="cls-1" d="M51.24,49c0-.13-.23-2-.23-3.47,0-.75,0-1.37,0-1.57,0-.44-.45-.24-.54-.07-.21.39-.31.31-.31.31s-.13,0-.16.36c0-.28-.08-.26-.17-.34-.31-.3-.49.75-.49.75a7.33,7.33,0,0,0,0,.74c0,.11,0,.25,0,.39a6,6,0,0,0,.38,2.26.26.26,0,0,0,.23.17A2,2,0,0,0,50,49.61c.44.67.67.52.67.52.79-.65.57-.89.57-1.16"/><path class="cls-1" d="M34.06,46.53a.91.91,0,1,1,1.17,1.39,1.07,1.07,0,0,1-.19-.06,4.17,4.17,0,0,0-1,0l0,0a.94.94,0,0,1-.26-.65,1,1,0,0,1,.28-.65m-1.14.66a1.78,1.78,0,0,0,.37,1.07,13.05,13.05,0,0,0-.93,1,1.16,1.16,0,0,1-.52.32s-.37,2.26.47,2c0,0,.13-.54.59-.45a1.19,1.19,0,0,0,1.27-.36c.2-.15.82,0,.82,0,.48-.11,1,.13,1.14-.31a.33.33,0,0,0,0-.11c-.38-.32-1.46-.16-1.46-.16A1.58,1.58,0,0,1,35,50c.08,0,.23,0,.25-.13a5.29,5.29,0,0,1,.59.16c.4.12.42-.08.45-.16a.41.41,0,0,0-.12-.25,5.21,5.21,0,0,0-.78-.26,5.34,5.34,0,0,0-.94,0,1.61,1.61,0,0,1,.43-.11c.14,0,.29,0,.27-.16a2.16,2.16,0,0,1,.67.22c.27.13.4.12.47.08a.61.61,0,0,0,.1-.14v-.09a.43.43,0,0,0-.24-.31,8.8,8.8,0,0,0-1-.31,4.46,4.46,0,0,0-.93.15,1.36,1.36,0,0,1,.61-.18c.32-.07.28-.24.28-.24s.07.1.72.29c.17.06.64.29.5-.13a1.24,1.24,0,0,0-.2-.22,1.89,1.89,0,0,0,.34-1,1.81,1.81,0,0,0-1.75-1.85,2.29,2.29,0,0,0-.36.07h0c-.47.66-1,1.28-1.45,1.75"/><path class="cls-1" d="M34.14,71.16c-.89-.65-3.24.45-3.24.45s-.42,1,.44,1a10.16,10.16,0,0,0,1.92-.1,11.74,11.74,0,0,1,2,.1c1-.28-1.1-1.43-1.1-1.43"/><path class="cls-1" d="M20.35,66c-.19,1.12-.61,3.07-.68,3.78s-.09,2-.09,2a7.79,7.79,0,0,0,.72.34l1.31-10.72S20.55,64.89,20.35,66"/><path class="cls-1" d="M37.16,40.1h1.07c.77,0,1-.28.72-.59s-1.25-.16-1.25-.16L37,39.6s.37.08.19.5"/><path class="cls-1" d="M76.65,68.3H73.49V59.93a1.58,1.58,0,0,1,3.15,0s0,.07,0,.12ZM71.18,57.4A2.38,2.38,0,1,1,73.56,55a2.38,2.38,0,0,1-2.38,2.37M68.86,68.3H65.7V60.05s0-.09,0-.12a1.57,1.57,0,0,1,3.14,0s0,.07,0,.12Zm.74-36h0a1.58,1.58,0,0,1,1.57-1.47,1.57,1.57,0,0,1,1.57,1.47v.25h0v8.66H69.6Zm-55,36H11.44V59.93A1.59,1.59,0,0,1,13,58.46a1.57,1.57,0,0,1,1.56,1.47.41.41,0,0,1,0,.12ZM9.11,57.4A2.38,2.38,0,1,1,11.49,55,2.38,2.38,0,0,1,9.11,57.4M6.8,68.3H3.65V60.05a.41.41,0,0,1,0-.12,1.57,1.57,0,0,1,3.14,0V68.3Zm.74-35.71h0v-.25a1.57,1.57,0,0,1,2.69-1,1.56,1.56,0,0,1,.46,1h0v8.91H7.54ZM77.78,50.06l-.39-22.57H79L72.12,13.91a2.1,2.1,0,1,0-1.89,0L63.38,27.49H65l-.12,6.61-.41-1.59a12.34,12.34,0,0,0-11.95-9.25h-.3A12.36,12.36,0,0,0,43.46,14V9.51h.66L40.88,3.1a1.64,1.64,0,1,0-1.47,0L36.17,9.51h.66V14a12.39,12.39,0,0,0-8.73,9.32h-.3a12.33,12.33,0,0,0-11.94,9.25l-.42,1.59-.12-6.61h1.59L10.06,13.91a2.1,2.1,0,1,0-1.89,0L1.32,27.49H2.9L2.52,50.06H.42L0,72.63H18.21l-.39-22.57V39.79a24.41,24.41,0,0,1,.89-5.71c.15-.55.32-1.07.49-1.57a9.14,9.14,0,0,1,8.6-6,9.33,9.33,0,0,1,3.32.62A10.21,10.21,0,0,1,31,25.83a9.12,9.12,0,1,1,18.23,0,8.55,8.55,0,0,1-.09,1.25,9.37,9.37,0,0,1,3.32-.62,9.14,9.14,0,0,1,8.6,6c.18.5.34,1,.5,1.57a24.39,24.39,0,0,1,.88,5.71V50.06l-.39,22.57H80.29l-.41-22.57Z"/><path class="cls-1" d="M43.39,44.37a1.27,1.27,0,0,0,.55-.09,2.33,2.33,0,0,0,1-1,.86.86,0,0,0-.45-.89.49.49,0,0,0-.44,0c-.16.06-.54.25-.54.25a.45.45,0,0,0,.07-.36c.28.19,1.43-.32,1.2-1.65a4.33,4.33,0,0,1-.08-.5,2.17,2.17,0,0,0,0-.57c0-.24.09-.68.06-.9s-.35-.16-.49-.1c-.46.2-.48,1-.53,1.19l-.15-.06c-.1,0-.11-.12-.23-.23A4.05,4.05,0,0,1,43,39c-.1-.12-.76-.85-1-1.12s-.48,0-.5.17.55,1,.55,1c.46.62.59.67.59.67l-.12.1s0-.07-.59-.77c-.08-.08-.67-.91-.91-1.15a.34.34,0,0,0-.54.09c-.14.32.82,1.47.82,1.47a3.05,3.05,0,0,0,.76.81l-.14.12c.08-.07-.75-.93-.75-.93a12.5,12.5,0,0,0-.86-1c-.33-.24-.44.31-.27.56.06.08.18.31.42.64s1,1,1,1l-.07.06a7.48,7.48,0,0,0-1.24-1.16c-.42-.3-.54.08-.44.29a7.08,7.08,0,0,0,.67.87c.11.13.94.73,1,.82s.32.47.38.54a4.87,4.87,0,0,0,.57.7s.36.24.59.13a1,1,0,0,0,.54,1.39"/><path class="cls-1" d="M54.6,56.74a2.39,2.39,0,0,1-2.46-.18A16.16,16.16,0,0,1,50,55.22a4.83,4.83,0,0,0,2.4.47,8.65,8.65,0,0,1,2.21-.39s-1.45.44-1.36,1.22c0,.29.65.37,1.32.22M44.37,53.05a1,1,0,0,0,.52,0l.83-.28c.28-.09.27,0,.34-.24a.79.79,0,0,0,.78.71c.53.07.84-.34,1.23-.33,0,0,.44,0,.52,0l.09.27c.42.33.69-.12.53-.45a1,1,0,0,0,.6.27,7.51,7.51,0,0,0,2-.42c.55-.19,1.62-.6,1.76-.94s-.43-1.2-.63-1.77c-.09-.23-.12-.26-.24-.58.1.24.34.75.62,1.31,0,.09.09.17.13.27.21.39.43.79.64,1.14a5.21,5.21,0,0,0,.6.91,6.93,6.93,0,0,1,1.19,1.28,21.71,21.71,0,0,1-1.19-3.73,19.84,19.84,0,0,0-1.33-2.78,9.71,9.71,0,0,1-.63-2.16,6.74,6.74,0,0,1,0-1.3s.94,2.78,1,3.18,1.06,3.42,1.26,3.85,1.46,3.91,1.79,4.28a5.93,5.93,0,0,1,.66.72,13.28,13.28,0,0,1,1.08,1.48,2,2,0,0,0-.86-.65.78.78,0,0,1-.41-.66,2.2,2.2,0,0,0-.47-.89,2.38,2.38,0,0,1-.5-.58c-.15-.23-.29-.5-.44-.76a8.45,8.45,0,0,0-1.46-1.08c-.63-.31-.95-.48-1.4-.29a8,8,0,0,1-3,.68c-1.27-.21-.48.39-.48.39a6.6,6.6,0,0,0,2.3.47,14.57,14.57,0,0,1,2.6.26,2.51,2.51,0,0,1,1.28.64,4.53,4.53,0,0,0-2.64-.19A4.83,4.83,0,0,1,49.57,54c-1.15-.52-1,.18-.85.35a2.69,2.69,0,0,0,.45.4c-.79-.28-.43.24-.43.24a5.29,5.29,0,0,1,.89.59c2.16,2,3.69,2.31,4.63,2.16a1.73,1.73,0,0,1,.54-.11,1.72,1.72,0,0,0-.58.37,6,6,0,0,1-2.42.69,4.24,4.24,0,0,1-2.59-.39c-.24-.2-.32-.87.17-1,.66-.2.82-.42.85-.8s-.6-.91-.6-.91c-1-.56-1.37-.19-1.37-.19l.34-1.93h-.77a4.13,4.13,0,0,0-.49,0,2.61,2.61,0,0,1-.56,0l-.1,0H46a2.16,2.16,0,0,1,0-.27h0L45.72,53a1.19,1.19,0,0,0-.35.06l-.55.18Zm7.81-6.19c.08.37.19,1.12.34,1.76-.09.1-.44.41-.76.68.72-.61.49-2.06.42-2.44m-.26-4.43a2.73,2.73,0,0,0,1.64,0c-.08.36-.85.35-.85.35a2.13,2.13,0,0,1,.59.63c.32.52-.44.23-.44.23,0-.7-.94-1.21-.94-1.21m6.61,19.86a5.18,5.18,0,0,0-.69-2.51,4.38,4.38,0,0,1,1.08,2.81c.08,1.82-.1,6.52-.23,7.8,0,0-.8,1-1.35-.72,0,0,.55.35.76-1a31.31,31.31,0,0,0,.43-6.38m-3.89,7c.1-.38.12-5,.12-5,.15,1.74.75,5.75.75,5.75-.7-.07-1-.37-.87-.74M53.79,61c0-.33,0-.55-.15-.57a2.56,2.56,0,0,0-.77,1.23c-.26.81-.5,1.41-1.28,3.42C50.31,68.43,49.34,69,49.34,69a2.58,2.58,0,0,0-.3-1.64c1.16-1.24,4.63-7.63,5.15-8.23s.64-.36.64-.36a3.58,3.58,0,0,0-1,2.26m-4.47,1.3c-.23-1-1.4-3.16-.67-3.22.32,0,2.05,1.52,2.87,1.52A1.13,1.13,0,0,0,52.69,60c.6-1.09.91-1.24.91-1.24A6.93,6.93,0,0,0,52.86,60c-.28.56-.61,1.19-.94,1.88a34.73,34.73,0,0,1-3,4.69,10.38,10.38,0,0,0,.37-4.24M42,68.83c-.1.5-.19,1.07-.24,1.32-.41,2.26.09,3.08.09,3.08s.75-.6,1.14-2.86c.2-1.17.93-5.33,1.6-9.12-.19-1.8-.3-3.5.14-3.91.27-.25.8-.67.65-.55.26-1.44.42-2.39.42-2.39l2.09.78a9.1,9.1,0,0,0-2,1.25c-1.24,1.93-.74,4.46-.6,5.31a6.87,6.87,0,0,1-.31,2.49,22.58,22.58,0,0,0,.61,3.8s.5,1.25,1.4,1.55c0,0-1-.15-1.12-.46a1.76,1.76,0,0,0-.34.49s-.91.62-.58,1.19a3.34,3.34,0,0,1-.75.64A5.28,5.28,0,0,1,43,72a1.53,1.53,0,0,0-.63.45c0,.12.07.14.1.1a1,1,0,0,1,.34-.26c-.29.16-.28.33-.19.4l0,0c.06,0,.17,0,.29-.22s.16-.2.4-.28c-.06,0-.52.23-.32.52.29.13.44-.26.5-.32a1.17,1.17,0,0,1,.68-.28c-.65.19-.72.3-.54.6a.92.92,0,0,0,.9,0c.6,0,1.46-.47,2-.5.21,0,.21,0,.55.11s.77.07.88-.13c.36-.69-.85-1.46-1.06-1.56s-.73-.48-.73-.48a9,9,0,0,0,1.28.59,3.19,3.19,0,0,0,.8.23c.81.1,1.21-.3,2-.36,1.83-1.66,2.18-2.51,2.75-5a29.57,29.57,0,0,0,.75-3.77,21.32,21.32,0,0,0,0,2.62c0,1,.15,4.16.07,4.68s-.35.65-.35.65a2.19,2.19,0,0,0,1.51,1.34,1.92,1.92,0,0,0,.85-.12,2.91,2.91,0,0,0,2.56.28,4.75,4.75,0,0,0,.77-.36c.18-.11.2-8.31.11-9.39a2.33,2.33,0,0,0-.35-1.3,4,4,0,0,0-.79-1.08.75.75,0,0,1-.27-.72c.07-.83.18-.75.46-.4a4.29,4.29,0,0,1,.6,2.2,11,11,0,0,1,.6.95,4.13,4.13,0,0,1,.14,1.51s.06,7.31,0,8a2.15,2.15,0,0,1,.32-.54s0-9-.23-10.93c-.06-.49-.29-.72-.35-1.14A4.34,4.34,0,0,0,58.83,56a3.13,3.13,0,0,1,.74,1.18,12.64,12.64,0,0,1,.62,2.62c.12.66.37,1.71.37,1.71a9.73,9.73,0,0,0-.39-4.3,10.32,10.32,0,0,0-.83-1.8c-.33-.55-.67-1-.76-1.11-1.28-2.09-1.45-2.74-2.75-5.25a8.33,8.33,0,0,1-1-4.63,3,3,0,0,0,.57,1.17,2,2,0,0,1,.27,1.46,4.7,4.7,0,0,0,.7,2.32,22.49,22.49,0,0,0,2,3.49c.44.55.67.48.67.48-.23-1.93-1.89-8.14-1.89-8.14a2.4,2.4,0,0,1,.9,1.48c.09.36.27,1.58.6,2.87.44,1.78,1.76,6.47,1.84,6.6-.47-3.13-.33-3.13-.63-4.38-.19-.76-.11-1.84-.26-2.89-.23-1.63-.29-2.17-.31-2.48-.19-3.12-1.17-3.32-1.17-3.32.45-1.19-.12-1.49-.12-1.49a1.49,1.49,0,0,0-1-.27c-.41.26-.31-.34-.71-.14s-.9.33-.9.33c1.21-.92.7-1.2.7-1.2a3.09,3.09,0,0,1-2.63,1.36,6.42,6.42,0,0,1-1.17,0c-.19,0-.3.14-.38.34a.28.28,0,0,0-.09-.1c.09-.13.17-.27-.08-.45a.59.59,0,0,1-.19-.2.92.92,0,0,1,0-.74c.14-.24.34-.41.34-.73a1.49,1.49,0,0,0-1,.3,7.16,7.16,0,0,1-.55.59,1.86,1.86,0,0,0-.44.88c-.09.39.39.59.39.59s-1-.13-.4-1c-.1.1-.48.24-.71.42s-.37.66-.52.91a6.7,6.7,0,0,1-.53.94,3.52,3.52,0,0,0-.56,1.36,1.87,1.87,0,0,1,.62-.42,1.21,1.21,0,0,1,.62-.08c.23,0,.23.08.63-.29s.51-.82,1-1.14c.3-.19.71-.36,1-.51a.27.27,0,0,0,.17.22.25.25,0,0,0,.22,0c0,.34-.09.93-.1,1.49a5.23,5.23,0,0,0,0,.81,9.51,9.51,0,0,0,.43,1.88,6.14,6.14,0,0,1-.7-1.55,19.28,19.28,0,0,0,.3,4.1c-.22.19-.43.36-.49.4l-.11.08-.39.29-.1.06c-.26.16-.83.5-1,.54a1.27,1.27,0,0,1-.54,0c-.24,0-.37.16-.52.31a2.07,2.07,0,0,1-.81,0l-.8-.56-.33-.25c.3-.09.54-.25.59-.49a.64.64,0,0,0-.13-.43h0l-1-.56c.74-.09.89.08,1.22-.21s.94-.83,1.43-1.23.35-1.13.45-1.62c.06-1.78-1.71-.84-1.71-.84l-.15.45c0,.08-.28.15-.35.11a1.29,1.29,0,0,1,.56,1.87s.56-1-.5-1.31a3,3,0,0,1-1.78-1.78c-.41-.54-.76.1-1.09.2a1.34,1.34,0,0,1-.86,0,.88.88,0,0,1-.64-.49,1.19,1.19,0,0,1-.09-.53.69.69,0,0,0-.07.86,7.23,7.23,0,0,1,.63,1.66A8,8,0,0,0,45,48.73l.17.16a.61.61,0,0,0-.35.41.79.79,0,0,0,.46.74s0,.05,0,.07a6.43,6.43,0,0,0-.75.37c-.26.17-.41.31-.46.48s.15.24.44.07c.07-.05.69-.28.78-.32a.52.52,0,0,1,.31,0s-1.17.51-1.37.63a.55.55,0,0,0-.34.5.21.21,0,0,0,.29.12c.12-.06.76-.29.9-.35s.23-.05.34,0L44,52.18a.4.4,0,0,0-.14.31.2.2,0,0,0,.27.18L45,52.3a.33.33,0,0,1,.31,0s-1.1.48-1.13.53a.17.17,0,0,0,0,.12l-1.92-.68-.34,1.92,2.66,0s-1,6-1.88,10.67a4.4,4.4,0,0,1-.7,4"/><path class="cls-1" d="M32.21,52l0-.08,0,.08"/><path class="cls-1" d="M29,45.67s.11,1.45.62,1.71.95,1,1.75.61c0,0,2.92-2.73,2.92-3.89a1.42,1.42,0,0,1-.55-.72c.24.51.73.78,1,.5.72-.63.71-.75.71-.75a1,1,0,0,0,.91-.57.45.45,0,0,0-.18-.35c.47.32.67-.33.67-.33a.69.69,0,0,0,.29-.3l-.08-.08a2.53,2.53,0,0,0,1.36-.28c.07-.06.08-.12.05-.17s-.26-.17-.26-.17-1.76.11-1.87.14c-.38.09-.2.44-.21.67a.62.62,0,0,1-.12.38.55.55,0,0,0,0-.58c-.1-.23-.28-.14-.21-.29s.2-.32.6-.38.7-.61.72-1c0-.12,0-.17-.1-.19s-.59.16-.75.25a4.7,4.7,0,0,1-.75.24,1.88,1.88,0,0,0,.51-.2,3.91,3.91,0,0,1,.89-.43c.14,0,.67-.12.83-.12.88-.29.46-.65.27-.67s-1,.18-1.16.18a19.21,19.21,0,0,0-1.92.83,5.3,5.3,0,0,0-.75,1.46c-.07.22-.32.88-.32.88-.44-.11-.66.32-.84.54s-1.06,1.34-1.21,1.5a13.67,13.67,0,0,1-1.33.9,1.12,1.12,0,0,0-.14.91,1,1,0,0,1-.18-.78,1,1,0,0,0,0-.55l-.23-.33L29.75,44s-1-.62-.8,1.68"/><path class="cls-1" d="M34.57,50.76c0,.33.06.7.1,1.1-1,.13-2,.31-2.76.46a6.07,6.07,0,0,1-1.69.91h0c0,.26.14.46.24.45s2.13,0,4.35-.2c.1,1.06.21,2.25.32,3.46h0a9.08,9.08,0,0,1,.21,2.4v0h0a11.64,11.64,0,0,0-6.67-4.45c-.47,0-.75,0-.84.72a17.41,17.41,0,0,0,0,1.79c0,.48.28,1.33.59,1.43a1.64,1.64,0,0,0,.69,0,2.81,2.81,0,0,0-.56.33,2.44,2.44,0,0,0-.74.62c-.16.28.6.09.6.09,0,.23.41.14.41.14s0,.56,1.26-.09a10.87,10.87,0,0,1,1.55-.87,3.26,3.26,0,0,0-.72.5c-.41.33-.69.61-1.08.91a9.57,9.57,0,0,1-2.44,1c.17.17.54,0,.54,0,0,2.16,3.29.35,3.29.35-2.66,2.17-3.72,0-4.37.9,3.08,2.09,6.42-1.59,7.09-2.31a2.07,2.07,0,0,1,1.76-.66s0,.81-.1,1.84v0c.28,3.11.51,5.68.55,6,.1,1,.1,1.39-.27,1.57a1.09,1.09,0,0,1-1.32-.13,5.43,5.43,0,0,1-.82-.76h0a5.72,5.72,0,0,1-.76-1.13,1.36,1.36,0,0,0,1,.26l.08,0a.75.75,0,0,0,.22-.1l.15-.11-.16-.09-.08-.06h0a4.67,4.67,0,0,1-1.9-3.43,2.38,2.38,0,0,0,1.13,1.84c1.48-1.87,2-3.23,1.25-4.12-.35-.41-1.62.3-2.41.84-.57.41-1.15.83-2,1.58s-2.51,2.35-2.51,2.35,1.84-2.43.86-2.31c-.61.3-1,1.24-1.48,2.17s-.41,1-1.21,1.42c0,1.73,3.22-.2,4.41-1.38a3.62,3.62,0,0,0,1.11-1.54l-.06.17A4.72,4.72,0,0,0,31,65.79a4.75,4.75,0,0,1-.65.53l-.15.11a22.84,22.84,0,0,1-4.19,2.62c-.76.33.06,1.63.06,1.63-.14.88,1.11,1.77,1.11,1.77a1.43,1.43,0,0,0,1.16-.15,3.54,3.54,0,0,0,2.52-.69,18.83,18.83,0,0,0,2.25-1.54,2.11,2.11,0,0,0-.86-.54,2,2,0,0,0-.95,0,8.51,8.51,0,0,0-2.84,1.36S29.83,69.7,31,68.42c.34-.38,0-1.19,0-2a4.87,4.87,0,0,0,.74,2.27l.3.4L32,68.62a4.74,4.74,0,0,1,0-1.25,8.83,8.83,0,0,0,1.18,2.45h0a4.37,4.37,0,0,0,.94,1c.71.55,1.81,1.3,2.57,1.8h0l.84.55.09,0,.06-.07s1.87-1.92,2.8-3.07c.38-.46,1.07-1.31,1.31-3.79a5.11,5.11,0,0,1,.31,1.21l0,.27s0,.05,0,.09v-.09l0,.22.2-.46A4.7,4.7,0,0,0,41,62.32l-.28-.25.08.37a4.84,4.84,0,0,1-1.12,4.08l-.13.13.17.08a1.14,1.14,0,0,0,1.23-.43,5.46,5.46,0,0,1-1.13,2.19,1.07,1.07,0,0,1-1.26.43c-.39-.09-.48-.46-.6-1.46-.09-.67-1.23-8.83-2-14.12,2.26-.3,4.39-.79,4.39-.79s.16-.26.13-.53-.14-.5-.24-.5-2.23,0-4.5.22c-.05-.38-.1-.73-.15-1h.24c-.23,0-.56,0-.84,0a1,1,0,0,0-.42.08"/><path class="cls-1" d="M21.42,70.17A10.38,10.38,0,0,0,21.51,68a4.61,4.61,0,0,1-.71,2.3,8.63,8.63,0,0,0-.5,1.81s.16.39.77.22a4.61,4.61,0,0,1,.35-2.14"/><path class="cls-1" d="M31.21,49.44s-1.34.56-1.8.84a2.56,2.56,0,0,0-1.15,1.66c-.07.53-.12,1.08,1.2.62,2.37-.83,2.33-1,2.33-1-.36-.26.05-2,.05-2-.11-.16-.63-.11-.63-.11"/><polygon class="cls-1" points="48.51 12.6 54.67 12.6 54.68 12.61 53.31 18.59 53.3 18.62 53.3 18.61 53.3 18.63 53.31 18.59 57.12 13.79 57.14 13.79 60.98 18.62 59.59 12.61 59.59 12.61 65.76 12.6 60.19 9.95 64.05 5.12 58.5 7.82 57.14 1.79 55.79 7.81 50.24 5.11 50.23 5.12 54.08 9.94 54.08 9.94 48.51 12.6"/><path class="cls-1" d="M54.76,94a24.37,24.37,0,0,1-29.23,0,23.88,23.88,0,0,1-14.62,4.87c-.42,0-.76,0-1.18,0a39.2,39.2,0,0,0,4.53,4.49,23.17,23.17,0,0,0,11.27-4.66,24.37,24.37,0,0,0,29.23,0A23.25,23.25,0,0,0,66,103.32a38.42,38.42,0,0,0,4.53-4.49c-.41,0-.75,0-1.18,0A23.88,23.88,0,0,1,54.76,94"/><path class="cls-1" d="M70.57,98.83l0,0,0,0Z"/><path class="cls-1" d="M28.72,35.3c-.19,0-.29-.14-.55-.09a1.55,1.55,0,0,1-.71,0,1.9,1.9,0,0,0,.43-.17,1.18,1.18,0,0,1,1.18.05s-.16.22-.35.2m-.16.43a.22.22,0,0,1-.28,0c-.16-.07,0-.24-.41-.3a.71.71,0,0,1,.27-.11.72.72,0,0,1,.55,0s0,.29-.13.35m-.33-2.13a1.22,1.22,0,0,1-.58.19,2,2,0,0,0-.59.74,1,1,0,0,1-.25.42.89.89,0,0,1-.27.2.51.51,0,0,1-.07.26,2.39,2.39,0,0,1-.35.54.56.56,0,0,0-.18.5c.11.14,0,.2,0,.38s.06.47.05.61a1,1,0,0,1-.17.6.37.37,0,0,0,0,.37.57.57,0,0,1-.22.12c.26.62,1,.54,1.27.5a5.57,5.57,0,0,1,.64,0,3.87,3.87,0,0,0,.88.09c.61-.11.42-.69.39-.88s-.39-.45-.39-.45A2,2,0,0,0,29,38l0-.15-.24-.07a4,4,0,0,0-.56-.05,3.94,3.94,0,0,1,.91-.06L29,37.15c.76,0,.61-.42.5-.66a5.37,5.37,0,0,1-.26-.72c-.05-.22-.11-.4-.11-.43a.76.76,0,0,0,.06-.3,7.18,7.18,0,0,1-.07-1.31,1,1,0,0,1-.4-.13.58.58,0,0,1-.46,0"/><path class="cls-1" d="M54.76,84.67a24.37,24.37,0,0,1-29.23,0,24,24,0,0,1-14.62,4.87,24.28,24.28,0,0,1-7.74-1.25h0A38.8,38.8,0,0,0,6,93.69a23.68,23.68,0,0,0,5,.52,23.89,23.89,0,0,0,14.62-4.88,24.33,24.33,0,0,0,29.23,0,24.22,24.22,0,0,0,19.57,4.36,38.8,38.8,0,0,0,2.79-5.4,24.24,24.24,0,0,1-7.74,1.25,24,24,0,0,1-14.62-4.87"/><path class="cls-1" d="M23.51,37.7a3.37,3.37,0,0,1,.06-.36,2.46,2.46,0,0,1,.26-.68c-.4,1.37.23,1.85.12,1.77a1,1,0,0,1,.13-.94s-.09.43,0,.55a1.35,1.35,0,0,1,.25-.71,1.44,1.44,0,0,0,.32-.66,2.31,2.31,0,0,1,.2-.63,2.17,2.17,0,0,0-.11.58.91.91,0,0,1-.08.45c-.14.39-.39,1.13.18,1.52,0,0-.3-.62,0-1,0,0-.06.62.28.75a1.42,1.42,0,0,1,.07-.86,1.64,1.64,0,0,0,.12-.67,1.33,1.33,0,0,1,0,.69.69.69,0,0,0,.1.7.44.44,0,0,1,.09-.48,1.15,1.15,0,0,0,.26-.91c-.09-.4-.37-.58.12-1.23a2.36,2.36,0,0,0,0,.75.65.65,0,0,1,0-.33c.09-.39.2-.28.09-.7-.07-.27.21-.53.21-.53a.44.44,0,0,0,0,.2.79.79,0,0,0,.08.23,1.48,1.48,0,0,1,0,.28,1.62,1.62,0,0,0,0-.68,1.19,1.19,0,0,1,.13-.56,1.39,1.39,0,0,0,0,.41c0,.2.07.36.07.51s.15,0,.17-.43.13-.46.1-.73c.19.22.08.73.08.73.26-.32.14-.48.09-.75s.24-.42.24-.42-.08.39.07.41.36-.17.36-.17.45-.1.45-.49c0,0,.19.44.48.07a.36.36,0,0,0,.11.23c.38.13.21-.55.21-.55a.58.58,0,0,1,.17.17c.2.27.09-.22.09-.22-.26-.48-1.31-.71-1.81-.77a10.67,10.67,0,0,0-1.62,0,2.28,2.28,0,0,0-1.52.67,4.5,4.5,0,0,0-1,2.36c-.32,1.43-.69,2.56-.69,2.75,0,1,.92.43,1-.26"/><path class="cls-1" d="M31.52,54.28a21,21,0,0,0-2-.83c-1.63.41-.61,1-.38,1.15a21.14,21.14,0,0,1,3,1.63c1.19.76,2.89,1.87,2.93.74-.59-1.06-2.24-2-3.6-2.69"/><path class="cls-1" d="M20.65,17.49A6.86,6.86,0,0,1,16,15.67,8.1,8.1,0,1,0,22.36,2.53a8.23,8.23,0,0,0-6.36,3,6.87,6.87,0,1,1,4.65,11.94"/><path class="cls-1" d="M23.71,41.86l-.55-.24a1.66,1.66,0,0,1-.89-.69c-.12-.31.24-.72.4-.86,0,0-.53.59,1,1.79m1.36,5.94c.56,1.34,1.55,1.05,1.55,1.05-1.87.87-2.56,4.14-2.56,4.14.17-2.69,1.39-3.42,1-5.19m-2.18-7.43c-.06-.51.37-.64.6-.73a1.59,1.59,0,0,0-.84.43,5.6,5.6,0,0,0-.61.59,8.82,8.82,0,0,0-1.58,2.75,15.08,15.08,0,0,0-.71,4.16c0,.77-.25,3.49-.3,5.23,0,1.15-.1,1.88-.11,2.42s-.12,16.12-.12,16.12l.29-3.6.85-8.7s.41-3.32.49-5.41.24-6.06.33-6.63a7.4,7.4,0,0,1,.71-2.41l-.41,12.94s.1,2.82.13,3.84c0,0-.1,6.33-.1,6.61l.82,4.33a1,1,0,0,0,1.1-.19l-.5-1.31-.71-3.87a.66.66,0,0,0,.38-.2,1.55,1.55,0,0,0,.28-.57A92.08,92.08,0,0,1,24.63,56c.44-1.31.61-4.71,3.89-6.75a2,2,0,0,0-1-.49c-.66-.11-.49-.17-.49-.17.25-.4-.44-1.37-.44-1.37A12.22,12.22,0,0,0,24.69,45c-.83-.94-.06-1.24-.06-1.24a3.28,3.28,0,0,0,.71,1.39c.33.46,1.21,2.06,1.21,2.06A5.81,5.81,0,0,0,25.27,43c-.39-.46-.78-.85-1.11-1.17l-.4-.37a7.31,7.31,0,0,1-.58-.59c-.05,0-.05-.09-.08-.14a2.15,2.15,0,0,0,.65.41c1.28.55,2.55.81,3.19.26a.91.91,0,0,0,.17-.81A.77.77,0,0,1,27,39.8c.06-.16.12-.35-.31-.37a1.32,1.32,0,0,1-1-.51,1.75,1.75,0,0,1-.09-.4.57.57,0,0,1-.3,0s-.19.25-.35.16a.77.77,0,0,1-.72,0l-.54.16a2,2,0,0,1-.22.77s-.44.55-.6.73"/><path class="cls-1" d="M40.15,108.19a23.83,23.83,0,0,1-14.62-4.88,22.88,22.88,0,0,1-6.46,3.5h0a40.58,40.58,0,0,0,4.61,2.45A18.93,18.93,0,0,0,25.53,108a23.83,23.83,0,0,0,14.62,4.8A23.85,23.85,0,0,0,54.77,108a20.07,20.07,0,0,0,1.84,1.28,40.72,40.72,0,0,0,4.62-2.45,22.88,22.88,0,0,1-6.46-3.5,23.85,23.85,0,0,1-14.62,4.88"/><path class="cls-1" d="M51.91,34.45a2.64,2.64,0,0,1-1.09,0,1.69,1.69,0,0,1-.94-.51c0-.16,0-.19.08-.16s.16.18.23.29a1.14,1.14,0,0,0,.63.38.58.58,0,0,0-.15-.38,1.07,1.07,0,0,0,.4.25c1.18.27.55-.28.55-.28.87.38.62.85.84,1.35a3.54,3.54,0,0,1-.22-.57c-.16-.31-.33-.35-.33-.35m-1.56,1a.52.52,0,0,1-.29-.09,1.89,1.89,0,0,1,1-.36.86.86,0,0,1,.69.37,1.72,1.72,0,0,0-1.42.08m.88.08c-.13.13,0,.34-.34.36s-.36-.39-.36-.39a1.43,1.43,0,0,1,.6-.14c.25,0,.32.09.32.09a.27.27,0,0,0-.22.08m2.3,2.32c-.1-.24-.12-.81-.21-1.18a3.18,3.18,0,0,0-.46-.76,2.39,2.39,0,0,0,.6.49,1.51,1.51,0,0,1,.65.88.34.34,0,0,0-.35-.15c-.18,0-.28.39-.23.72.36.42.45-.15.45-.15a.31.31,0,0,1,.08.35s.22.25.5-.08.19-1-.63-1.57-.79-1-.79-1a1.63,1.63,0,0,0,.7.53,1.29,1.29,0,0,1,.81.73s-.08-.18-.49-.24c0,0,1,1,.67,1.64a.76.76,0,0,0,.14-.91s.31.26.31.51c0,0,.31-.43-.37-1.14a1.44,1.44,0,0,1-.4-.7,2.22,2.22,0,0,0-.4-.45,2,2,0,0,1-.37-.81.74.74,0,0,0,.33.35,1.5,1.5,0,0,0-.13-.93,1.45,1.45,0,0,1,.31.53,2.29,2.29,0,0,0,.35.7,1.06,1.06,0,0,1,.19.8c0,.41.32.53.41.62a1.13,1.13,0,0,1,.47,1s.25-.36-.14-1-.22-.79-.19-.86a.81.81,0,0,0,.42.56s.09-.23-.47-.9a3.1,3.1,0,0,1-.93-2.08s0,.29.48.56a6.64,6.64,0,0,1-.22-.64c-.06-.25-.18-1.17-1.62-1.44a7.58,7.58,0,0,0-2.66.56,1.83,1.83,0,0,0-.83,1.5,3.35,3.35,0,0,0,.4.83,1.62,1.62,0,0,1,0,.22v.21c0,.08-.11.28,0,.36a.27.27,0,0,1,.07.21c0,.24-.25,1.17-.25,1.34s0,.39.34.35a1.25,1.25,0,0,0,.27-.08,2.74,2.74,0,0,1,0,.41.46.46,0,0,1,.37-.09c.21,0,.57,0,.57,0l-.51.1a.84.84,0,0,1-.3,0l0,.2a1.48,1.48,0,0,0,.65-.19.7.7,0,0,1-.27.29c-.2.08-.3-.08-.38-.1a.34.34,0,0,1,.21.31c0,.24-.11.62.28.65a4.68,4.68,0,0,0,.66,0,2.37,2.37,0,0,0,.52,0c.22-.07,1.28-.53,1.45-1.06"/><path class="cls-1" d="M73,78.57H65.73V74.11h-7.3v4.46H51.11V74.11H43.8v4.46H36.49V74.11H29.18v4.46H21.87V74.11H14.56v4.46H7.25V74.11H0a40.13,40.13,0,0,0,1.31,8.83,24.17,24.17,0,0,0,9.57,1.94A23.94,23.94,0,0,0,25.52,80a24,24,0,0,0,14.62,4.87h0A23.94,23.94,0,0,0,54.77,80,24.43,24.43,0,0,0,79,82.94a39.55,39.55,0,0,0,1.32-8.83H73Z"/><path class="cls-1" d="M24.83,41.79c-.44-.09-.31.21-.16.35.87.88,2.23,2.64,2.28,4.21,0,0,1,.38,1.2-1.1a8.17,8.17,0,0,0-.36-2.79s.11.21.43,1a10.29,10.29,0,0,1,.47,2.67,3,3,0,0,0,.15-.78c0-.27,0-.55,0-.79a5.17,5.17,0,0,0-.12-1.8,3.8,3.8,0,0,0-.33-.65l-1.11-1.43a1.22,1.22,0,0,1-.38.7,2.21,2.21,0,0,1-2.11.37"/><path class="cls-1" d="M52.14,41.45a5.43,5.43,0,0,0,1.33.23,2.89,2.89,0,0,0,1.25-.34,3.2,3.2,0,0,0,.72-.71,2.34,2.34,0,0,0,.25-.39.75.75,0,0,0,.06-.13c0-.2.07-.56-.47-1a2.27,2.27,0,0,1-.47-.73h0a.48.48,0,0,1-.42-.09.4.4,0,0,1-.43-.1c-.1,0-.32,0-.43-.33.12.45-.79.88-1.12,1.3s-.47-.09-.64.11c0,.27.12.36.11.51a5.67,5.67,0,0,1,0,.6c-.06.29-.16.93.3,1"/><path class="cls-1" d="M58.47,71.85c-.07-.32-.2-.28-.52-.15s-.68-.11-1-.17-.3,0-.53.08a1.39,1.39,0,0,1-.55,0c-.66-.08-.61.65-.61.65a1.63,1.63,0,0,0,.11.23,1.87,1.87,0,0,0,.41.2c.09,0,.08.1.12.18s.85.62,1.33.09c.11-.24-.52-.64-.45-.61a1.82,1.82,0,0,1,.51.39c.2.23.5.39.71.18s-.49-.72-.49-.72a1.75,1.75,0,0,1,.51.39c.2.25.37.33.46,0a1.71,1.71,0,0,0-.44-.52,1.79,1.79,0,0,1,.3.23c.19.18.35.13.31-.2a1.22,1.22,0,0,0-.23-.21"/><path class="cls-1" d="M107,48.2,105.65,44H99.89l-1.4,4.24H95.05L101.27,31h3l6.23,17.2Zm-4.25-13.26-2,6.23h4Z"/><path class="cls-1" d="M123.23,48.2,121.88,44h-5.76l-1.41,4.24h-3.44L117.5,31h2.94l6.24,17.2ZM119,34.94l-2,6.23h4Z"/><path class="cls-1" d="M137.5,48.2l-3.94-6.88h-1.64V48.2h-3.29V31h5.74c2.5,0,3.65.31,4.66,1.28A4.8,4.8,0,0,1,140.44,36a5.23,5.23,0,0,1-.94,3.24,4.27,4.27,0,0,1-2.68,1.59l4.27,7.37Zm-3.45-14.41h-2.13v4.74h2.13c2.09,0,3-.73,3-2.45S136.19,33.79,134.05,33.79Z"/><path class="cls-1" d="M155.69,48.2V40.83h-8.84V48.2h-3.28V31h3.28v6.88h8.84V31H159V48.2Z"/><path class="cls-1" d="M174.91,47.29a8.05,8.05,0,0,1-4.85,1.25,8,8,0,0,1-4.87-1.25c-1.78-1.22-2.35-2.66-2.35-5.81V31h3.26V41.66c0,2.56,1.33,3.83,4.07,3.83,2.5,0,3.83-1.35,3.83-3.83V31h3.28V41.48C177.28,44.63,176.71,46,174.91,47.29Z"/><path class="cls-1" d="M190.79,35.09a11.72,11.72,0,0,0-4.46-1.22c-1.54,0-2.53.62-2.53,1.59,0,.73.42,1.17,1.65,1.82a25,25,0,0,1,5.16,3.31,4.41,4.41,0,0,1,1.17,3.08c0,3.07-2.24,4.87-6.05,4.87a9.8,9.8,0,0,1-1.54-.1,10.42,10.42,0,0,1-3.59-1.2c-.24-.1-.63-.29-1.12-.52l1.38-3a18.92,18.92,0,0,0,2.45,1.2,7.68,7.68,0,0,0,2.47.5c1.51,0,2.51-.68,2.51-1.72,0-.73-.4-1.23-1.52-1.85l-2.65-1.51c-3.05-1.75-4-2.9-4-4.77a4.67,4.67,0,0,1,.67-2.4,4.85,4.85,0,0,1,1.28-1.28,6.67,6.67,0,0,1,4.33-1.15,10.87,10.87,0,0,1,3.23.45,15.08,15.08,0,0,1,2.45,1Z"/><path class="cls-1" d="M104.06,72.63l-5.73-8.18v8.18H95.05V55.43h3.28v8l5.4-8h3.78l-5.92,8.37,6.23,8.83Z"/><path class="cls-1" d="M116.92,73c-5.37,0-9.15-3.7-9.15-8.94s3.7-8.91,9.15-8.91S126,58.71,126,64,122.26,73,116.92,73Zm0-15c-3.26,0-5.66,2.6-5.66,6.07s2.4,6.07,5.66,6.07,5.63-2.58,5.63-6.07S120.15,58,116.92,58Z"/><path class="cls-1" d="M143.72,72.63V60a7.89,7.89,0,0,1-.65,2.46l-3.93,10.16h-2.95l-3.6-10a12.71,12.71,0,0,1-.65-2.74V72.63h-3V55.43h3.93l4.59,12.27a4.38,4.38,0,0,1,.34,1.33,4.8,4.8,0,0,1,.31-1.33l4.77-12.27h3.94v17.2Z"/><path class="cls-1" d="M165.9,72.63V60a8.19,8.19,0,0,1-.65,2.46l-3.94,10.16h-2.95l-3.59-10a12.64,12.64,0,0,1-.66-2.74V72.63h-3V55.43h3.94l4.59,12.27A4.39,4.39,0,0,1,160,69a4.39,4.39,0,0,1,.32-1.33l4.77-12.27H169v17.2Z"/><path class="cls-1" d="M185.05,71.72a10.07,10.07,0,0,1-9.72,0c-1.77-1.23-2.34-2.66-2.34-5.82V55.43h3.25V66.09c0,2.55,1.33,3.83,4.07,3.83,2.5,0,3.83-1.36,3.83-3.83V55.43h3.29V65.9C187.43,69.06,186.85,70.47,185.05,71.72Z"/><path class="cls-1" d="M202.69,72.79l-7.38-11.13c-.05-.08-.16-.32-.36-.68-.11-.21-.19-.34-.21-.37a2.42,2.42,0,0,1-.24-.6V72.63h-3.12V55.43h3.77l7.22,11.31a3.14,3.14,0,0,1,.19.36l.15.34.16.45.16.31V55.43h3.1V72.79Z"/><path class="cls-1" d="M210.34,72.63V55.43h10.48v2.79h-7.19v4.25h5.89v2.79h-5.89v4.58h7.53v2.79Z"/></g></g></svg>