<svg xmlns="http://www.w3.org/2000/svg" viewBox="0 0 161.19 109.9"><defs><style>.cls-1{fill:#fff;}</style></defs><title>Besøg-hvid</title><g id="Layer_2" data-name="Layer 2"><g id="Layer_1-2" data-name="Layer 1"><path class="cls-1" d="M95.75,68.69a27.48,27.48,0,1,0-30.31,0A44,44,0,0,0,36.63,109.9H44a36.64,36.64,0,0,1,73.27,0h7.32A44,44,0,0,0,95.75,68.69Zm-35.3-22.9A20.15,20.15,0,1,1,80.59,65.94,20.17,20.17,0,0,1,60.45,45.79Z"/><path class="cls-1" d="M132.38,50.37A27.45,27.45,0,1,0,98.29,7.61a28.36,28.36,0,0,0-4.7,5.92A34.92,34.92,0,0,1,100.07,17a20.11,20.11,0,1,1,17.16,30.65q-1,0-1.92-.09a35.21,35.21,0,0,1-1.23,7.65c1-.1,2.08-.23,3.15-.23a37.49,37.49,0,0,1,4.39.29,36.67,36.67,0,0,1,32.24,36.34h7.33A44,44,0,0,0,132.38,50.37Z"/><path class="cls-1" d="M44,55c1.07,0,2.11.13,3.15.23a34.62,34.62,0,0,1-1.23-7.65q-.95.09-1.92.09A20.15,20.15,0,1,1,44,7.33,20.22,20.22,0,0,1,61.12,17a34.83,34.83,0,0,1,6.47-3.44,27.72,27.72,0,0,0-4.7-5.92A27.45,27.45,0,1,0,28.81,50.37,44,44,0,0,0,0,91.58H7.33A36.67,36.67,0,0,1,39.57,55.24,37.34,37.34,0,0,1,44,55Z"/></g></g></svg>