<svg xmlns="http://www.w3.org/2000/svg" xmlns:xlink="http://www.w3.org/1999/xlink" viewBox="0 0 92.2 92.16"><defs><style>.cls-1{fill:url(#linear-gradient);}.cls-2{fill:url(#linear-gradient-2);}</style><linearGradient id="linear-gradient" y1="46.08" x2="92.2" y2="46.08" gradientUnits="userSpaceOnUse"><stop offset="0" stop-color="#00747e"/><stop offset="0.48" stop-color="#13978e"/><stop offset="1" stop-color="#29c2a2"/></linearGradient><linearGradient id="linear-gradient-2" x1="24.6" y1="47.74" x2="67.65" y2="47.74" xlink:href="#linear-gradient"/></defs><title>Down-arrow</title><g id="Layer_2" data-name="Layer 2"><g id="Layer_1-2" data-name="Layer 1"><g id="DscrS2.tif"><path class="cls-1" d="M0,46A46.1,46.1,0,1,1,45.46,92.15,46.12,46.12,0,0,1,0,46Zm82.72.13C83,26,66,8.81,44.91,9.47A36.63,36.63,0,1,0,82.72,46.11Z"/><path class="cls-2" d="M46.12,61.72a1.23,1.23,0,0,1-.71-.48Q35.21,51,25,40.84c-.53-.52-.56-.87,0-1.39,1.77-1.73,3.53-3.47,5.25-5.26.62-.65,1-.5,1.56.06,4.35,4.38,8.72,8.73,13.09,13.1,1.23,1.22,1.23,1.22,2.48,0,4.31-4.31,8.64-8.61,12.93-13,.73-.74,1.17-.75,1.88,0,1.62,1.72,3.32,3.38,5,5,.57.55.59.91,0,1.48Q57,51,46.88,61.19C46.66,61.41,46.47,61.69,46.12,61.72Z"/></g></g></g></svg>