<svg xmlns="http://www.w3.org/2000/svg" viewBox="0 0 140.58 140.49"><defs><style>.cls-1{fill:#fff;}</style></defs><title>Event-hvid</title><g id="Layer_2" data-name="Layer 2"><g id="Layer_1-2" data-name="Layer 1"><g id="xnJLxu.tif"><path class="cls-1" d="M93.55,0c2.71,2.28,3.52,5.28,3.17,8.65s.94,4.63,4.36,4.52c4.22-.14,8.47-.39,12.68.42,6.78,1.3,11.51,6.49,11.57,13.41.14,16.57,0,33.14.09,49.71,0,2.36-.73,3.19-3.18,2.85-8.1-1.12-8.11-1.06-8.11-9.5,0-5.65-.1-11.3,0-17,.06-2.7-1-3.57-3.61-3.56q-47.79.09-95.57,0c-2.9,0-3.74,1-3.72,3.83.09,18.37,0,36.73.05,55.1,0,4.56.85,5.39,5.42,5.4,19,0,38,.1,57-.07,3.76,0,5.22,1,5.41,4.9.32,6.46.56,6.45-6.18,6.45H16C5.42,125.14,0,119.78,0,109.3Q0,69.22,0,29.15c0-9.86,5.42-15.54,15.3-16,3.33-.15,6.68-.17,10,0,3,.14,4.17-1,4-4C29.11,5.66,28.72,2,32.63,0H44.2c3.21,2,3.66,5.09,3.29,8.39-.43,3.76,1.15,4.9,4.79,4.78q10.35-.35,20.71,0c3.79.14,5.54-1,5.05-5A8.78,8.78,0,0,1,81.21,0Z"/><path class="cls-1" d="M140.58,119.52c-2,5.75-4.66,11.09-9.63,15-8.81,6.94-20.17,7.93-29.57,2.47-9.64-5.61-15-16.48-13.23-27a26.78,26.78,0,0,1,21-22,26.51,26.51,0,0,1,29.38,15.35c.77,1.76,1.37,3.59,2,5.39ZM106,111.08c-.55.47-1.2,1.07-1.9,1.6-2.14,1.62-1.92,3.55.17,4.55,3,1.44,3.56,8.37,8.51,4.75,4.51-3.3,8.07-7.86,12.14-11.78,1.57-1.52,1.46-2.67-.06-4.16s-2.59-1.86-4.15-.18c-2.1,2.25-4.46,4.26-6.49,6.57s-3.78,2.85-5.85.15A3.09,3.09,0,0,0,106,111.08Z"/><path class="cls-1" d="M26.69,92.29c6.8,0,6.9.11,6.89,7.24,0,6.55-.47,7-7.34,7-6.49,0-6.91-.47-6.91-7.43C19.34,92.43,19.49,92.29,26.69,92.29Z"/><path class="cls-1" d="M69.88,64c0,6.91-.21,7.11-7.08,7.11-6.71,0-7.15-.44-7.15-7.16s.42-7.09,7.22-7.09S69.88,57,69.88,64Z"/><path class="cls-1" d="M74,64.06c0-7.17,0-7.19,6.91-7.19s7.23.36,7.23,6.61c0,7.17-.46,7.65-7.5,7.64C74.08,71.11,74,71,74,64.06Z"/><path class="cls-1" d="M98.89,71.12c-6.57,0-7-.46-7-7.31,0-6.52.46-6.94,7.37-6.94s6.87.11,6.86,7.67C106.11,70.84,105.79,71.13,98.89,71.12Z"/><path class="cls-1" d="M26.43,74.56c7,0,7.15.2,7.15,7s-.43,7.18-7.13,7.18-7.13-.38-7.12-7.57C19.34,74.73,19.52,74.56,26.43,74.56Z"/><path class="cls-1" d="M37.75,63.78c0-6.88,0-6.92,7.25-6.91,6.28,0,6.9.66,6.9,7.15s-.57,7.12-7.72,7.1C37.87,71.11,37.75,71,37.75,63.78Z"/><path class="cls-1" d="M69.88,82c0,6.51-.39,6.85-7.52,6.83-6.19,0-6.72-.6-6.71-7.33s.31-6.91,7.83-6.89C69.76,74.57,69.89,74.72,69.88,82Z"/><path class="cls-1" d="M62.92,92.29c6.83,0,7,.12,7,6.83,0,7.12-.28,7.41-7.35,7.4-6.34,0-6.88-.58-6.88-7.16C55.65,92.61,56,92.29,62.92,92.29Z"/><path class="cls-1" d="M74,81.53c0-7,0-7,7.13-7,6.61,0,7,.4,7,6.88,0,6.65-.67,7.34-7.16,7.34C74.23,88.79,74,88.55,74,81.53Z"/><path class="cls-1" d="M45.12,74.56c6.22,0,6.78.6,6.78,7.18,0,6.35-.75,7.05-7.45,7-6.53,0-6.71-.23-6.7-7.89C37.77,74.58,37.81,74.54,45.12,74.56Z"/><path class="cls-1" d="M44.7,92.29c6.68,0,7.2.52,7.2,7.15,0,6.38-.74,7.08-7.41,7.08-6.49,0-6.74-.29-6.74-7.48C37.76,92.31,37.78,92.29,44.7,92.29Z"/></g></g></g></svg>