<svg xmlns="http://www.w3.org/2000/svg" viewBox="0 0 48.41 48.38"><defs><style>.cls-1{fill:#00747e;}</style></defs><title>Event-bla</title><g id="Layer_2" data-name="Layer 2"><g id="Layer_1-2" data-name="Layer 1"><g id="xnJLxu.tif"><path class="cls-1" d="M32.21,0a3.2,3.2,0,0,1,1.1,3c-.12,1.14.32,1.59,1.5,1.55a19.9,19.9,0,0,1,4.36.15,4.67,4.67,0,0,1,4,4.62c0,5.7,0,11.41,0,17.11,0,.82-.25,1.1-1.1,1C39.3,27,39.3,27,39.3,24.13c0-1.95,0-3.9,0-5.84,0-.93-.33-1.23-1.24-1.23q-16.45,0-32.91,0c-1,0-1.29.35-1.28,1.32,0,6.32,0,12.65,0,19,0,1.57.29,1.86,1.86,1.86,6.55,0,13.1,0,19.64,0,1.3,0,1.8.35,1.86,1.68.11,2.23.2,2.22-2.12,2.22H5.5C1.87,43.09,0,41.24,0,37.64V10c0-3.4,1.87-5.35,5.27-5.51,1.15,0,2.3-.06,3.45,0s1.44-.34,1.37-1.39S9.89.69,11.24,0h4a2.68,2.68,0,0,1,1.13,2.89c-.14,1.29.4,1.69,1.65,1.64,2.38-.07,4.76-.08,7.13,0,1.31,0,1.91-.34,1.74-1.71A3,3,0,0,1,28,0Z"/><path class="cls-1" d="M48.41,41.15a10.87,10.87,0,0,1-3.32,5.17,8.94,8.94,0,0,1-10.18.85A9.1,9.1,0,0,1,37.59,30.3,9.1,9.1,0,0,1,47.7,35.58c.27.61.47,1.24.71,1.86Zm-11.92-2.9c-.19.16-.42.37-.66.55-.73.56-.66,1.22.06,1.57,1,.49,1.22,2.88,2.93,1.63A43.08,43.08,0,0,0,43,38c.54-.53.5-.92,0-1.43s-.89-.65-1.43-.07c-.72.78-1.53,1.47-2.23,2.26s-1.31,1-2,.06A1.06,1.06,0,0,0,36.49,38.25Z"/><path class="cls-1" d="M9.19,31.78c2.34,0,2.38,0,2.37,2.49,0,2.26-.16,2.41-2.53,2.41s-2.37-.16-2.37-2.56S6.71,31.78,9.19,31.78Z"/><path class="cls-1" d="M24.06,22c0,2.38-.07,2.45-2.44,2.45s-2.46-.15-2.46-2.47.15-2.44,2.49-2.44S24.06,19.63,24.06,22Z"/><path class="cls-1" d="M25.48,22.06c0-2.47,0-2.48,2.38-2.48s2.49.13,2.49,2.28c0,2.47-.16,2.63-2.58,2.63C25.51,24.49,25.48,24.46,25.48,22.06Z"/><path class="cls-1" d="M34.05,24.49c-2.26,0-2.41-.16-2.41-2.52s.16-2.39,2.54-2.39,2.37,0,2.36,2.64C36.54,24.39,36.43,24.49,34.05,24.49Z"/><path class="cls-1" d="M9.1,25.67c2.39,0,2.46.07,2.46,2.43s-.14,2.47-2.45,2.47S6.65,30.44,6.66,28C6.66,25.73,6.72,25.67,9.1,25.67Z"/><path class="cls-1" d="M13,22c0-2.37,0-2.38,2.5-2.38,2.16,0,2.37.23,2.37,2.46s-.2,2.46-2.66,2.45C13,24.49,13,24.44,13,22Z"/><path class="cls-1" d="M24.06,28.22c0,2.24-.13,2.36-2.59,2.35-2.13,0-2.31-.21-2.31-2.52s.11-2.38,2.7-2.38C24,25.68,24.07,25.73,24.06,28.22Z"/><path class="cls-1" d="M21.67,31.78c2.35,0,2.39,0,2.39,2.35s-.1,2.55-2.53,2.55c-2.18,0-2.37-.2-2.37-2.46S19.28,31.78,21.67,31.78Z"/><path class="cls-1" d="M25.48,28.07c0-2.4,0-2.4,2.46-2.4,2.27,0,2.41.14,2.41,2.37s-.23,2.53-2.47,2.53S25.48,30.49,25.48,28.07Z"/><path class="cls-1" d="M15.54,25.67c2.14,0,2.33.21,2.33,2.48s-.26,2.42-2.56,2.42S13,30.49,13,27.85C13,25.68,13,25.67,15.54,25.67Z"/><path class="cls-1" d="M15.39,31.78c2.3,0,2.48.18,2.48,2.46s-.26,2.44-2.55,2.44S13,36.58,13,34.1C13,31.79,13,31.78,15.39,31.78Z"/></g></g></g></svg>