<svg xmlns="http://www.w3.org/2000/svg" viewBox="0 0 59.51 47.68"><defs><style>.cls-1{fill:#00747e;}</style></defs><title>frivillig-bla</title><g id="Layer_2" data-name="Layer 2"><g id="Layer_1-2" data-name="Layer 1"><g id="_0PrYFU.tif" data-name="0PrYFU.tif"><path class="cls-1" d="M31,47.68H29.12a6.28,6.28,0,0,1-2.74-1.89c-.26-.29-.58-.55-.84-.86s-.55-.32-.92-.06a4.12,4.12,0,0,1-6.18-1.47.58.58,0,0,0-.85-.32,3.92,3.92,0,0,1-2.2.09,4.06,4.06,0,0,1-3.2-4.41.8.8,0,0,0-.58-.94,4,4,0,0,1-2.5-3.13,4.13,4.13,0,0,1,1.36-3.9c.35-.34.39-.59,0-.93s-.9-.89-1.35-1.34L0,19.33v-1c.22-.26.43-.53.66-.77C2,16.25,3.23,15,4.53,13.68a1.65,1.65,0,0,0,.55-1.28,6.27,6.27,0,0,1,6.36-6.24,1.32,1.32,0,0,0,1.05-.45l4-4C17.43.77,18,.78,19,1.73s1.78,1.75,2.65,2.65A1.84,1.84,0,0,0,22.81,5q5.88.59,11.75,1.21a1.09,1.09,0,0,0,.93-.43q2.5-2.52,5-5c.26-.26.54-.48.81-.72h1c.27.24.54.48.8.73Q46.29,3.88,49.43,7L59.51,17.17v1c-.25.29-.49.59-.75.86L48.83,29c-1.34,1.34-1.34,1.34,0,2.68a4.16,4.16,0,0,1-1,6.91.51.51,0,0,0-.3.7,4.17,4.17,0,0,1-6,4.89c-.37-.18-.56-.15-.76.22A3.83,3.83,0,0,1,39.15,46a4.12,4.12,0,0,1-4.7-.41c-.2-.14-.42-.52-.65-.07A4.64,4.64,0,0,1,31,47.68ZM29.8,8.33c-.12-.05-.18-.1-.24-.1l-7.08-.71a1.09,1.09,0,0,0-.94.41c-1.14,1.14-2.27,2.29-3.42,3.41a1.41,1.41,0,0,0-.44,1.08,6.24,6.24,0,0,1-6.35,6.31,1.32,1.32,0,0,0-1,.41c-1,1-2,2-3,3-.45.42-.37.68,0,1.07,1.56,1.52,3.11,3.06,4.63,4.63a1.17,1.17,0,0,0,1.43.35A4,4,0,0,1,19,31.8c0,.48.28.58.66.67a4,4,0,0,1,3.29,3.45A1.16,1.16,0,0,0,23.87,37a4.15,4.15,0,0,1,2.94,5,.88.88,0,0,0,.26.91c.61.58,1.2,1.2,1.81,1.78a1.66,1.66,0,0,0,2.35,0,1.64,1.64,0,0,0,0-2.34c-.27-.3-.58-.56-.84-.87a1.24,1.24,0,0,1,0-1.77,1.3,1.3,0,0,1,1.74,0c.16.14.3.29.45.44,1.1,1.09,2.18,2.2,3.29,3.28a1.63,1.63,0,1,0,2.34-2.28c-.19-.22-.41-.43-.62-.64-.64-.64-1.3-1.27-1.92-1.94a1.26,1.26,0,1,1,1.78-1.79c.16.14.31.3.46.45,1.42,1.42,2.84,2.85,4.27,4.27a1.63,1.63,0,0,0,2.47.18,1.71,1.71,0,0,0-.13-2.49c-1-1.06-2.1-2.1-3.15-3.15-.25-.26-.52-.5-.75-.78a1.25,1.25,0,0,1,1.7-1.82,3.92,3.92,0,0,1,.57.51c.67.67,1.33,1.36,2,2a1.6,1.6,0,0,0,2.24,0,1.66,1.66,0,0,0,.13-2.2c-.2-.25-.43-.47-.65-.7-3.9-3.9-7.82-7.77-11.66-11.71-1.09-1.12-2.17-2-3.82-1.78a1.61,1.61,0,0,1-.44-.05,7.51,7.51,0,0,0-5.25,1c-.45.31-.94.57-1.42.85a5.9,5.9,0,0,1-6.17-.5,2.9,2.9,0,0,1-.66-4,5.73,5.73,0,0,1,1.37-1.49c3.45-2.67,6.81-5.5,11-6.93C29.69,8.44,29.71,8.4,29.8,8.33ZM52.51,21.47c-.1-.11-.21-.26-.35-.39C47.6,16.5,43,11.94,38.47,7.35c-.4-.4-.68-.4-1,0a8.7,8.7,0,0,1-4,2.64c-1.66.62-3.3,1.34-5,2a15.3,15.3,0,0,0-4.13,2.19c-1.39,1.08-2.8,2.13-4.2,3.2a3.65,3.65,0,0,0-.76.76.56.56,0,0,0,.16.87,3.17,3.17,0,0,0,3.25.19c.88-.53,1.74-1.05,2.66-1.51a7.25,7.25,0,0,1,3.49-.8c1.25,0,2.49.27,3.73.24a3.59,3.59,0,0,1,2.89,1.27C38.77,21.6,42,24.76,45.16,28c.41.41.66.44,1.08,0,2-2,3.95-4,5.92-5.94C52.3,21.89,52.5,21.77,52.51,21.47Zm-37.4-9a3.73,3.73,0,1,0-3.74,3.77A3.74,3.74,0,0,0,15.11,12.44Zm5.35,24.32a1.63,1.63,0,0,0-2.76-1.34c-.83.81-1.66,1.62-2.47,2.46a1.64,1.64,0,1,0,2.32,2.31c.81-.78,1.59-1.58,2.38-2.37A1.59,1.59,0,0,0,20.46,36.76Zm-3.83-4.6A1.62,1.62,0,0,0,13.92,31c-.63.57-1.23,1.17-1.81,1.79a1.64,1.64,0,1,0,2.32,2.3c.59-.55,1.15-1.13,1.71-1.7A1.56,1.56,0,0,0,16.63,32.16Zm5.48,11A2.43,2.43,0,0,0,24.33,41a1.64,1.64,0,0,0-1.62-1.63,2.59,2.59,0,0,0-2.19,2.14A1.6,1.6,0,0,0,22.11,43.11Z"/></g></g></g></svg>