<svg xmlns="http://www.w3.org/2000/svg" viewBox="0 0 177.06 141.88"><defs><style>.cls-1{fill:#fff;}</style></defs><title>Frivillig-hvid</title><g id="Layer_2" data-name="Layer 2"><g id="Layer_1-2" data-name="Layer 1"><g id="_0PrYFU.tif" data-name="0PrYFU.tif"><path class="cls-1" d="M92.31,141.88H86.64a19,19,0,0,1-8.14-5.63c-.8-.89-1.73-1.65-2.52-2.56s-1.61-1-2.72-.19c-6.57,4.53-14.55,2.64-18.38-4.36a1.75,1.75,0,0,0-2.55-1,11.62,11.62,0,0,1-6.53.28C39.67,127,36,122,36.26,115.33a2.39,2.39,0,0,0-1.72-2.81,11.81,11.81,0,0,1-7.45-9.31c-.83-4.62.78-8.43,4.07-11.6,1.05-1,1.16-1.75,0-2.76-1.4-1.26-2.69-2.66-4-4L0,57.51v-3c.66-.76,1.27-1.57,2-2.28,3.82-3.85,7.63-7.7,11.51-11.49a5,5,0,0,0,1.64-3.81A18.69,18.69,0,0,1,34,18.32,4,4,0,0,0,37.17,17c3.94-4,7.91-8,11.88-11.92,2.79-2.79,4.5-2.77,7.35,0C59,7.75,61.68,10.36,64.27,13a5.43,5.43,0,0,0,3.6,1.77q17.47,1.71,34.95,3.58a3.21,3.21,0,0,0,2.77-1.28q7.47-7.49,15-15c.76-.75,1.6-1.42,2.4-2.13h3c.78.72,1.6,1.42,2.36,2.18q9.36,9.35,18.72,18.72,15,15.08,30,30.18v3c-.74.85-1.44,1.75-2.24,2.55q-14.76,14.81-29.54,29.57c-4,4-4,4,0,8,6.63,6.69,5.29,16.05-3,20.55a1.5,1.5,0,0,0-.91,2.07c1.45,5.23.29,9.84-3.93,13.3s-9.08,3.77-14,1.27c-1.08-.56-1.66-.45-2.25.63a11.28,11.28,0,0,1-4.73,4.77c-4.91,2.59-9.58,2-14-1.22-.57-.42-1.23-1.53-1.93-.21C98.75,138.75,95.82,140.66,92.31,141.88ZM88.66,24.79a2.83,2.83,0,0,0-.7-.31L66.9,22.37a3.33,3.33,0,0,0-2.82,1.22C60.71,27,57.33,30.4,53.9,33.75a4.19,4.19,0,0,0-1.28,3.19c-.2,10.77-8.12,18.63-18.9,18.78a4,4,0,0,0-3,1.24c-2.9,3-5.8,6-8.83,8.82C20.54,67,20.78,67.8,22,69c4.65,4.54,9.25,9.12,13.76,13.79a3.48,3.48,0,0,0,4.26,1C48.27,81,55.86,86.05,56.44,94.61c.1,1.44.82,1.73,2,2,5.49,1.26,8.81,4.71,9.76,10.25A3.47,3.47,0,0,0,71,110a12.37,12.37,0,0,1,8.77,14.87,2.62,2.62,0,0,0,.77,2.71c1.82,1.75,3.55,3.58,5.38,5.32a4.93,4.93,0,0,0,7,.14,4.87,4.87,0,0,0,0-7c-.81-.88-1.72-1.67-2.5-2.58a3.7,3.7,0,0,1,.11-5.28,3.84,3.84,0,0,1,5.17,0A16.88,16.88,0,0,1,97,119.5c3.26,3.25,6.48,6.53,9.78,9.74a4.85,4.85,0,0,0,7,.19c2-1.9,2-4.71,0-7-.58-.67-1.23-1.27-1.85-1.9-1.91-1.92-3.87-3.8-5.72-5.78a3.79,3.79,0,0,1-.14-5.43c1.5-1.51,3.62-1.47,5.44.11.47.42.91.88,1.35,1.32,4.24,4.24,8.46,8.49,12.72,12.7,2.46,2.45,5.22,2.63,7.36.56s1.86-5.11-.41-7.43c-3.1-3.15-6.24-6.25-9.36-9.37-.75-.76-1.55-1.49-2.23-2.31a3.72,3.72,0,0,1,5-5.42,14.32,14.32,0,0,1,1.69,1.52c2,2,4,4.06,6.05,6a4.77,4.77,0,0,0,6.68,0,5,5,0,0,0,.36-6.56,21,21,0,0,0-1.93-2.08c-11.58-11.6-23.26-23.1-34.7-34.85-3.24-3.33-6.45-5.9-11.36-5.27a6,6,0,0,1-1.31-.15c-5.54-.66-10.82-.11-15.6,3.09-1.36.91-2.81,1.7-4.22,2.52-5.27,3.06-13.7,2.38-18.38-1.49-3.9-3.21-4.63-7.71-2-12a16.91,16.91,0,0,1,4.08-4.43c10.26-8,20.25-16.36,32.82-20.63C88.33,25.12,88.41,25,88.66,24.79Zm67.56,39.09c-.29-.33-.62-.78-1-1.17q-20.37-20.4-40.74-40.83c-1.2-1.21-2-1.2-3,.08-3.07,3.89-7.23,6.13-11.79,7.84-5,1.87-9.81,4-14.77,5.83a45.66,45.66,0,0,0-12.31,6.5c-4.14,3.2-8.32,6.34-12.48,9.52a10.76,10.76,0,0,0-2.26,2.26,1.64,1.64,0,0,0,.48,2.58,9.33,9.33,0,0,0,9.66.56c2.6-1.55,5.19-3.12,7.9-4.47A21.37,21.37,0,0,1,86.24,50.2c3.72.11,7.42.8,11.12.7s6.14,1.26,8.6,3.77c9.39,9.6,19,19,28.42,28.55,1.2,1.21,2,1.31,3.2,0,5.82-5.94,11.74-11.8,17.61-17.69C155.62,65.14,156.19,64.77,156.22,63.88ZM45,37A11.1,11.1,0,1,0,33.83,48.23,11.13,11.13,0,0,0,45,37Zm15.93,72.36c0-2.62-.94-4.15-2.79-4.92a4.71,4.71,0,0,0-5.43.91c-2.48,2.42-4.94,4.85-7.34,7.34-2.15,2.23-2.17,5.1-.18,7.08s4.82,1.95,7.08-.21c2.41-2.31,4.73-4.7,7.09-7.07A4.69,4.69,0,0,0,60.88,109.38ZM49.49,95.68a4.83,4.83,0,0,0-8.08-3.53c-1.87,1.69-3.65,3.49-5.39,5.31a4.88,4.88,0,1,0,6.92,6.86c1.74-1.64,3.41-3.35,5.09-5.06A4.69,4.69,0,0,0,49.49,95.68Zm16.3,32.59c3.11,0,6.59-3.32,6.61-6.38A4.94,4.94,0,0,0,67.57,117c-2.82,0-6.45,3.54-6.52,6.38A4.75,4.75,0,0,0,65.79,128.27Z"/></g></g></g></svg>