<svg xmlns="http://www.w3.org/2000/svg" xmlns:xlink="http://www.w3.org/1999/xlink" viewBox="0 0 345.31 201.79"><defs><style>.cls-1{fill:none;stroke-miterlimit:10;stroke-width:4px;stroke:url(#linear-gradient);}.cls-2{fill:#fff;}.cls-3{fill:url(#linear-gradient-2);}.cls-4{fill:url(#linear-gradient-3);}.cls-5{fill:url(#linear-gradient-4);}</style><linearGradient id="linear-gradient" y1="108.92" x2="345.31" y2="108.92" gradientUnits="userSpaceOnUse"><stop offset="0" stop-color="#29c2a2"/><stop offset="0.52" stop-color="#13978e"/><stop offset="1" stop-color="#00747e"/></linearGradient><linearGradient id="linear-gradient-2" x1="150.53" y1="22.12" x2="194.77" y2="22.12" gradientUnits="userSpaceOnUse"><stop offset="0" stop-color="#00747e"/><stop offset="0.48" stop-color="#13978e"/><stop offset="1" stop-color="#29c2a2"/></linearGradient><linearGradient id="linear-gradient-3" x1="166.93" y1="25.99" x2="177.91" y2="25.99" xlink:href="#linear-gradient-2"/><linearGradient id="linear-gradient-4" x1="171.81" y1="11.8" x2="178.33" y2="11.8" xlink:href="#linear-gradient-2"/></defs><title>info-bord-mobil</title><g id="Layer_2" data-name="Layer 2"><g id="Layer_1-2" data-name="Layer 1"><rect class="cls-1" x="2" y="18.06" width="341.31" height="181.73" rx="39.63" ry="39.63"/><rect class="cls-2" x="144.38" y="2.77" width="56.54" height="33.24"/><g id="Hq3nJD.tif"><path class="cls-3" d="M172.63,0a22.13,22.13,0,1,1-22.1,22.07A22.12,22.12,0,0,1,172.63,0Zm.06,2.29a19.84,19.84,0,1,0,19.78,20.87A19.81,19.81,0,0,0,172.69,2.29Z"/><path class="cls-4" d="M168.62,30.85a12.93,12.93,0,0,1,.74-3.81,43.47,43.47,0,0,0,1.26-4.9c.32-2.15-.49-2.43-2.35-2.23a5.85,5.85,0,0,0-1,.28c-.24.08-.38.06-.34-.25a1.6,1.6,0,0,1,1.2-1.57,11.93,11.93,0,0,1,4.49-.92,3.93,3.93,0,0,1,2.73,1.16,3.1,3.1,0,0,1,.82,2,14,14,0,0,1-.81,4.52,45.9,45.9,0,0,0-1.21,4.75c-.28,1.7.23,2.31,1.94,2.24a5.45,5.45,0,0,0,1.44-.31c.3-.1.4-.05.36.31a1.61,1.61,0,0,1-1.23,1.49,10.54,10.54,0,0,1-4.43.92,3.82,3.82,0,0,1-3.37-2A3.31,3.31,0,0,1,168.62,30.85Z"/><path class="cls-5" d="M178.33,11.66a3.27,3.27,0,0,1-4.78,2.82,2.94,2.94,0,0,1-1.67-3.32,3.32,3.32,0,0,1,6.41.14C178.32,11.46,178.32,11.62,178.33,11.66Z"/></g></g></g></svg>