<svg xmlns="http://www.w3.org/2000/svg" xmlns:xlink="http://www.w3.org/1999/xlink" viewBox="0 0 1495.08 474.02"><defs><style>.cls-1{fill:none;stroke-miterlimit:10;stroke-width:10px;stroke:url(#linear-gradient);}.cls-2{fill:#fff;}.cls-3{fill:url(#linear-gradient-2);}.cls-4{fill:url(#linear-gradient-3);}.cls-5{fill:url(#linear-gradient-4);}</style><linearGradient id="linear-gradient" y1="276.61" x2="1495.08" y2="276.61" gradientUnits="userSpaceOnUse"><stop offset="0" stop-color="#29c2a2"/><stop offset="0.52" stop-color="#13978e"/><stop offset="1" stop-color="#00747e"/></linearGradient><linearGradient id="linear-gradient-2" x1="664.68" y1="84.19" x2="830.39" y2="84.19" gradientUnits="userSpaceOnUse"><stop offset="0" stop-color="#00747e"/><stop offset="0.48" stop-color="#13978e"/><stop offset="1" stop-color="#29c2a2"/></linearGradient><linearGradient id="linear-gradient-3" x1="726.12" y1="98.69" x2="767.21" y2="98.69" xlink:href="#linear-gradient-2"/><linearGradient id="linear-gradient-4" x1="744.36" y1="45.52" x2="768.79" y2="45.52" xlink:href="#linear-gradient-2"/></defs><title>Info-border-desk</title><g id="Layer_2" data-name="Layer 2"><g id="Layer_1-2" data-name="Layer 1"><rect class="cls-1" x="5" y="84.19" width="1485.08" height="384.83" rx="120.31" ry="120.31"/><rect class="cls-2" x="624.54" width="246.01" height="144.65"/><g id="Hq3nJD.tif"><path class="cls-3" d="M747.47,1.33A82.87,82.87,0,1,1,664.68,84,82.85,82.85,0,0,1,747.47,1.33Zm.19,8.58a74.31,74.31,0,1,0,74.1,78.18C823.94,45,789.38,9.8,747.66,9.91Z"/><path class="cls-4" d="M732.43,116.88c-.19-4.89,1.49-9.54,2.77-14.27,1.64-6.1,3.79-12.07,4.72-18.34,1.21-8.08-1.83-9.13-8.8-8.36A20,20,0,0,0,727.41,77c-.91.28-1.42.22-1.26-1,.37-2.83,1.27-4.92,4.47-5.89,5.52-1.68,10.87-3.93,16.82-3.44,3.91.32,7.49,1.4,10.24,4.37a11.55,11.55,0,0,1,3.07,7.49c.34,5.9-1.49,11.39-3,16.95-1.62,5.91-3.59,11.72-4.56,17.81-1,6.35.87,8.62,7.28,8.36a20.6,20.6,0,0,0,5.38-1.16c1.15-.37,1.51-.18,1.34,1.16a6,6,0,0,1-4.57,5.6c-5.42,1.86-10.7,4-16.6,3.43-5.46-.49-10-2.44-12.62-7.58A12.13,12.13,0,0,1,732.43,116.88Z"/><path class="cls-5" d="M768.79,45c0,9-9.8,14.54-17.9,10.55a11.07,11.07,0,0,1-6.25-12.45,11.76,11.76,0,0,1,11.22-8.95c6.83-.05,11.67,3.53,12.79,9.47A13.39,13.39,0,0,1,768.79,45Z"/></g></g></g></svg>