<svg xmlns="http://www.w3.org/2000/svg" viewBox="0 0 133.3 133.32"><defs><style>.cls-1{fill:#fff;}</style></defs><title>Om-hvid</title><g id="Layer_2" data-name="Layer 2"><g id="Layer_1-2" data-name="Layer 1"><g id="Hq3nJD.tif"><path class="cls-1" d="M66.6,0A66.66,66.66,0,1,1,0,66.5,66.65,66.65,0,0,1,66.6,0Zm.15,6.91a59.77,59.77,0,1,0,59.61,62.88A59.69,59.69,0,0,0,66.75,6.91Z"/><path class="cls-1" d="M54.5,93c-.16-3.93,1.2-7.67,2.22-11.48,1.33-4.9,3.05-9.71,3.81-14.75,1-6.5-1.48-7.35-7.09-6.73a15.3,15.3,0,0,0-3,.86c-.74.23-1.14.18-1-.78.3-2.27,1-4,3.6-4.74,4.44-1.34,8.74-3.15,13.53-2.76,3.14.26,6,1.12,8.24,3.51a9.38,9.38,0,0,1,2.47,6c.28,4.75-1.2,9.16-2.43,13.63-1.3,4.76-2.89,9.44-3.67,14.33-.82,5.12.71,6.94,5.86,6.73a16.51,16.51,0,0,0,4.33-.94c.92-.29,1.21-.14,1.08.94a4.83,4.83,0,0,1-3.68,4.5c-4.36,1.5-8.61,3.19-13.35,2.76-4.4-.39-8-2-10.16-6.09A9.77,9.77,0,0,1,54.5,93Z"/><path class="cls-1" d="M83.75,35.14c0,7.25-7.88,11.7-14.4,8.49a8.89,8.89,0,0,1-5-10,9.47,9.47,0,0,1,9-7.19c5.5,0,9.39,2.84,10.29,7.62A9.47,9.47,0,0,1,83.75,35.14Z"/></g></g></g></svg>