<svg xmlns="http://www.w3.org/2000/svg" viewBox="0 0 66.54 99.21"><defs><style>.cls-1{fill:#00747e;}</style></defs><title>Placering-bla</title><g id="Layer_2" data-name="Layer 2"><g id="Layer_1-2" data-name="Layer 1"><g id="_2CUFqx.tif" data-name="2CUFqx.tif"><path class="cls-1" d="M33,0a33.16,33.16,0,0,1,28.43,50.8c-4.06,6.83-8,13.74-12,20.62q-7.19,12.48-14.34,25c-.38.67-.73,1.35-1.12,2-.61,1-.84,1-1.43,0-1.69-2.94-3.36-5.89-5.05-8.82Q19.9,76.31,12.24,63c-2.73-4.76-5.58-9.44-8.17-14.28a31.26,31.26,0,0,1-2-26.65C6.66,9.83,15.66,2.67,28.49.36A18.06,18.06,0,0,1,33,0Zm.34,21A12.27,12.27,0,1,0,45.59,33.22,12.33,12.33,0,0,0,33.36,21Z"/></g></g></g></svg>