<svg xmlns="http://www.w3.org/2000/svg" viewBox="0 0 32.84 45.98"><defs><style>.cls-1{fill:#fff;}</style></defs><title>Placering-hvid</title><g id="Layer_2" data-name="Layer 2"><g id="Layer_1-2" data-name="Layer 1"><g id="_2CUFqx.tif" data-name="2CUFqx.tif"><path class="cls-1" d="M16.3,0c8.33,0,15.3,5.69,16.39,13.29a14.74,14.74,0,0,1-2.36,10.25c-2,3.17-3.94,6.37-5.9,9.56L17.35,44.68c-.18.31-.36.63-.55.93-.3.48-.42.49-.71,0L13.6,41.54,6,29.19C4.69,27,3.28,24.82,2,22.58A13.73,13.73,0,0,1,1,10.23c2.26-5.67,6.7-9,13-10.06A9.27,9.27,0,0,1,16.3,0Zm.16,9.71a5.9,5.9,0,0,0-6.07,5.64,5.94,5.94,0,0,0,6.07,5.72,5.94,5.94,0,0,0,6-5.69A5.88,5.88,0,0,0,16.46,9.73Z"/></g></g></g></svg>