<svg xmlns="http://www.w3.org/2000/svg" viewBox="0 0 184.5 51.12"><defs><style>.cls-1{fill:#fff;}.cls-2{fill:#03203d;}.cls-3{fill:#ecbc04;}.cls-4{fill:#fbfbfb;}.cls-5{fill:#e30407;}</style></defs><title>Rejseplan-knap</title><g id="Layer_2" data-name="Layer 2"><g id="Layer_1-2" data-name="Layer 1"><rect class="cls-1" width="184.5" height="51.12" rx="15.46" ry="15.46"/><path class="cls-2" d="M127,32.21c-3.94,0-7.88.09-11.83.06a1.51,1.51,0,0,0-1.74,1.15A22.3,22.3,0,0,1,92.1,48.18a22.54,22.54,0,0,1-21-14.79c-.13-.36-.28-.71-.42-1.06a24.43,24.43,0,0,1,0-13.22C73,12.19,77.45,7.21,84.31,4.58a22.41,22.41,0,0,1,29,13.19A1.62,1.62,0,0,0,115.13,19c3.94,0,7.88,0,11.82.06ZM107.38,25.6A15.13,15.13,0,1,0,92.25,40.78,15.14,15.14,0,0,0,107.38,25.6Z"/><path class="cls-3" d="M70.65,19.11a24.43,24.43,0,0,0,0,13.22l-11.78.1c-.71,0-1.42,0-2.13.07V19.09Z"/><path class="cls-4" d="M107.38,25.6A15.13,15.13,0,1,1,92.32,10.53,15.24,15.24,0,0,1,107.38,25.6ZM92.23,33.39a7.83,7.83,0,1,0-7.84-7.84A7.73,7.73,0,0,0,92.23,33.39Z"/><path class="cls-5" d="M92.23,33.39a7.83,7.83,0,0,1-.08-15.66,7.83,7.83,0,1,1,.08,15.66Z"/></g></g></svg>