<svg xmlns="http://www.w3.org/2000/svg" viewBox="0 0 435.58 201.57"><defs><style>.cls-1{fill:#fff;}</style></defs><title>REUSE-Logo</title><g id="Layer_2" data-name="Layer 2"><g id="Layer_1-2" data-name="Layer 1"><path class="cls-1" d="M244.79,201.47q-92.23,0-184.47.08A10.57,10.57,0,0,1,52,198.16Q27.61,173.44,2.92,149A9,9,0,0,1,0,142Q.14,73.53,0,5C0,1.09,1.13,0,5.06,0Q190.78.15,376.5,0a7.88,7.88,0,0,1,6.14,2.49q25,25.19,50.2,50.18c2.13,2.1,2.68,4.25,2.68,7.07q-.09,68,.06,136c0,4.58-1.22,5.83-5.82,5.82Q337.27,201.34,244.79,201.47ZM68.89,153.28v19c0,15.44,0,15.44,15.32,14.8a2.78,2.78,0,0,1,.5,0c2.6.28,3.55-.93,3.46-3.48a103.11,103.11,0,0,1,0-11c.13-1.86-1.48-4.79,1.84-5.34,2.9-.48,5.79-.66,7.78,2.71,2.86,4.87,6.31,9.38,9.33,14.16,1.28,2,2.69,3.07,5.2,3,4.82-.17,9.65-.12,14.47,0,3.15,0,4.06-.68,2-3.59-3.78-5.26-7.36-10.66-11-16-1.38-2-2.4-3.51.63-5.52,9-5.93,12.13-14.45,9.77-24.56-2.16-9.24-9.49-15.59-20-16.82-11.76-1.39-23.6-.33-35.39-.63-3.63-.09-3.94,2.13-3.93,4.88C68.92,134.32,68.9,143.8,68.89,153.28Zm293.07.1c0,9.33.22,18.67-.09,28-.15,4.67,1.5,5.89,6,5.79,12.32-.3,24.66-.11,37-.11s12.29,0,11.76-12.32c-.13-3.09-1-4.4-4.37-4.33-9.16.21-18.33-.08-27.49.14-3.86.1-3.86-2-3.76-4.73.1-2.48-.46-5,3.63-4.84,5.81.28,11.66.17,17.49,0,12.54-.29,10.54,2.6,10.86-11.19.07-3.36-1.31-4.31-4.45-4.25-7.83.14-15.67-.06-23.49.09-3,.05-4.22-.85-4.08-4,.13-2.85,0-5.28,4-5.14,6.49.22,13,0,19.49,0,12,0,11.84,0,11.84-12.12,0-3.52-1.12-4.59-4.56-4.56q-22.5.2-45,0c-3.73,0-4.94,1.37-4.88,5C362.08,134.39,362,143.89,362,153.38Zm-217.46.4c0,9.49.14,19-.07,28.48-.08,3.69,1.07,4.92,4.82,4.87,13-.2,26-.08,39-.08,11.07,0,10.89,0,11.09-11.32.07-4-.85-5.54-5.16-5.36-8.32.35-16.66,0-25,.15-3.36,0-5.5-.11-5.53-4.63,0-4.69,2.1-5.07,5.76-4.91,5,.22,10,.05,15,.05,11.16,0,11,0,10.82-11.22-.06-3.34-1.27-4.3-4.41-4.24-7.5.14-15-.12-22.49.11-3.53.1-4.61-1.17-4.61-4.57s1.39-4.65,4.76-4.56c6.16.17,12.33.15,18.49,0,14.24-.3,11.66,2.62,12-12.64.07-3.17-1.37-4-4.21-4q-23,.08-46,0c-3.11,0-4.42,1-4.35,4.36C144.63,134.12,144.51,144,144.5,153.78Zm131.55-10.4c0-7.29-.12-13.29,0-19.28.09-3.06-1.14-4.22-4.08-4.14-3.5.09-7,.16-10.5,0-3.77-.22-5.25,1-5.15,5.09.27,11,.15,22,.06,33-.06,6.45-2.51,10.45-7,12.06-8.92,3.18-16.23-1.76-16.37-11.3-.16-11.49-.11-23,0-34.48,0-2.86-.73-4.41-3.89-4.32-4,.13-8,.1-12,0-2.76,0-3.75,1.13-3.73,3.91.12,12.83-.42,25.68.22,38.47.55,10.88,5.76,19.33,16.4,23.6,7,2.82,14.36,2.84,21.63,1.88,13.32-1.75,21.23-10.05,23.61-23.32C276.61,157,275.56,149.55,276.05,143.38Zm44.58,44.89a31.66,31.66,0,0,0,17.77-5.4c10.44-7.22,12-27.15-2.74-33.34a81.42,81.42,0,0,0-11.3-3.87c-3.38-.87-6.8-1.64-10.1-2.74-2-.68-4.29-1.68-3.71-4.49.52-2.56,2.75-3.13,5-3.36,3.9-.39,7.51,1,11.23,1.85,3.28.78,5.85,5.36,9.16,3.16,2.85-1.9,4.26-5.84,6.62-8.63,2.18-2.58,1.74-4.28-1-5.92-11.45-6.87-23.63-8.8-36.35-4.63A20.3,20.3,0,0,0,291,140c-.14,9,4,14.68,13.79,18.54,2.62,1,5.38,1.7,8.09,2.48,3.66,1.06,7.38,1.94,11,3.13a3.84,3.84,0,0,1,2.89,4.62c-.42,2.19-2.22,2.85-4.09,3a34.84,34.84,0,0,1-15.16-2.16c-3.4-1.23-6.17-5.79-9.43-4.36s-4.89,5.7-7.62,8.34c-2.91,2.83-1.59,4.36,1,6.17C299.59,185.55,308.72,188,320.63,188.27Z"/><path class="cls-1" d="M96.76,136.86c2.64.21,5.31-.26,7.91.69a6.64,6.64,0,0,1,4.71,6.88,6.37,6.37,0,0,1-4.58,6.45c-4.69,1.53-9.54,1.12-14.36.94-1.64-.06-2.3-1.09-2.28-2.66,0-1.16,0-2.33,0-3.49C88.25,135,87,137.27,96.76,136.86Z"/></g></g></svg>