<svg xmlns="http://www.w3.org/2000/svg" xmlns:xlink="http://www.w3.org/1999/xlink" viewBox="0 0 1920 1277.96"><defs><style>.cls-1{isolation:isolate;}.cls-2,.cls-29,.cls-52{mix-blend-mode:multiply;}.cls-2{fill:url(#linear-gradient);}.cls-3{fill:#00747e;}.cls-4{fill:url(#linear-gradient-2);}.cls-5{font-size:29.95px;font-family:Raleway, Raleway;}.cls-13,.cls-5{fill:#fdfdfd;}.cls-6{letter-spacing:-0.02em;}.cls-7{letter-spacing:-0.02em;}.cls-8{letter-spacing:-0.02em;}.cls-9{letter-spacing:-0.01em;}.cls-10{letter-spacing:-0.01em;}.cls-11{fill:url(#linear-gradient-3);}.cls-12{fill:url(#linear-gradient-4);}.cls-13{font-size:37.44px;font-family:Roboto-Regular, Roboto;}.cls-14,.cls-18{fill:#008b7e;}.cls-15,.cls-21,.cls-50,.cls-58,.cls-60,.cls-61,.cls-63{fill:none;}.cls-15{stroke:#008b7e;stroke-width:8px;}.cls-15,.cls-21,.cls-50,.cls-60,.cls-61,.cls-63{stroke-miterlimit:10;}.cls-16{font-size:15.83px;}.cls-16,.cls-22{font-family:ArialMT, Arial;}.cls-17{letter-spacing:-0.02em;}.cls-18,.cls-19,.cls-43{fill-rule:evenodd;}.cls-19{fill:url(#linear-gradient-5);}.cls-20,.cls-49,.cls-62{opacity:0.7;mix-blend-mode:hard-light;}.cls-20{fill:url(#radial-gradient);}.cls-21,.cls-50,.cls-63{stroke-width:7px;}.cls-21{stroke:url(#linear-gradient-6);}.cls-22{font-size:12px;}.cls-23{letter-spacing:2.11em;}.cls-24{letter-spacing:1.66em;}.cls-25{letter-spacing:2.72em;}.cls-26{letter-spacing:2.38em;}.cls-27{letter-spacing:-0.02em;}.cls-28{letter-spacing:2.68em;}.cls-29{fill:url(#linear-gradient-7);}.cls-30{fill:url(#linear-gradient-8);}.cls-31{fill:url(#linear-gradient-9);}.cls-32{fill:url(#linear-gradient-10);}.cls-33{fill:url(#linear-gradient-11);}.cls-34{fill:url(#linear-gradient-12);}.cls-35{fill:#1d1d1b;}.cls-36{fill:#5e5e5f;}.cls-37{fill:#29c2a2;}.cls-38{fill:#322507;}.cls-39{fill:#b8f4e4;}.cls-40,.cls-43{fill:#fff;}.cls-41{fill:#029e87;}.cls-42{fill:#016d60;}.cls-44{fill:#04b795;}.cls-45{fill:#038771;}.cls-46{fill:#1ba7a5;}.cls-47{fill:#05c19d;}.cls-48{fill:#049e80;}.cls-49{fill:url(#radial-gradient-2);}.cls-50{stroke:url(#linear-gradient-13);}.cls-51{letter-spacing:-0.06em;}.cls-52{fill:url(#linear-gradient-14);}.cls-53{fill:url(#linear-gradient-15);}.cls-54{letter-spacing:-0.01em;}.cls-55{letter-spacing:-0.01em;}.cls-56{fill:url(#linear-gradient-16);}.cls-57{fill:url(#linear-gradient-17);}.cls-59{fill:url(#linear-gradient-18);}.cls-60,.cls-61{stroke-width:5px;}.cls-60{stroke:url(#linear-gradient-19);}.cls-61{stroke:url(#linear-gradient-21);}.cls-62{fill:url(#radial-gradient-3);}.cls-63{stroke:url(#linear-gradient-22);}</style><linearGradient id="linear-gradient" x1="166.47" y1="305.5" x2="459.33" y2="305.5" gradientUnits="userSpaceOnUse"><stop offset="0" stop-color="#fc4700"/><stop offset="1" stop-color="#ff7800"/></linearGradient><linearGradient id="linear-gradient-2" x1="166.47" y1="293.01" x2="459.33" y2="293.01" gradientUnits="userSpaceOnUse"><stop offset="0" stop-color="#00747e"/><stop offset="1" stop-color="#0b9"/></linearGradient><linearGradient id="linear-gradient-3" x1="166.47" y1="218.97" x2="459.32" y2="218.97" gradientUnits="userSpaceOnUse"><stop offset="0" stop-color="#fff"/><stop offset="0.97" stop-color="#c1c1c1"/></linearGradient><linearGradient id="linear-gradient-4" x1="250.93" y1="114.77" x2="374.87" y2="114.77" xlink:href="#linear-gradient-2"/><linearGradient id="linear-gradient-5" x1="269.56" y1="219.2" x2="356.24" y2="219.2" xlink:href="#linear-gradient-2"/><radialGradient id="radial-gradient" cx="312.9" cy="420.34" r="176.29" gradientTransform="translate(16.64 -11.89) rotate(2.24)" gradientUnits="userSpaceOnUse"><stop offset="0" stop-color="#ffffe6" stop-opacity="0.56"/><stop offset="1" stop-color="#c1c1c1" stop-opacity="0"/></radialGradient><linearGradient id="linear-gradient-6" x1="115.24" y1="1147.3" x2="511.29" y2="1147.3" gradientUnits="userSpaceOnUse"><stop offset="0" stop-color="#29c2a2"/><stop offset="0.52" stop-color="#13978e"/><stop offset="1" stop-color="#00747e"/></linearGradient><linearGradient id="linear-gradient-7" x1="851.41" y1="305.5" x2="1144.27" y2="305.5" xlink:href="#linear-gradient"/><linearGradient id="linear-gradient-8" x1="851.41" y1="293.01" x2="1144.27" y2="293.01" xlink:href="#linear-gradient-2"/><linearGradient id="linear-gradient-9" x1="851.41" y1="218.97" x2="1144.26" y2="218.97" xlink:href="#linear-gradient-3"/><linearGradient id="linear-gradient-10" x1="935.87" y1="114.77" x2="1059.81" y2="114.77" xlink:href="#linear-gradient-2"/><linearGradient id="linear-gradient-11" x1="961.99" y1="217.76" x2="1002.61" y2="217.76" xlink:href="#linear-gradient-2"/><linearGradient id="linear-gradient-12" x1="993.05" y1="220.65" x2="1033.69" y2="220.65" xlink:href="#linear-gradient-2"/><radialGradient id="radial-gradient-2" cx="997.84" cy="420.34" r="176.29" gradientTransform="translate(17.17 -38.63) rotate(2.24)" xlink:href="#radial-gradient"/><linearGradient id="linear-gradient-13" x1="802.19" y1="1151.32" x2="1198.24" y2="1151.32" xlink:href="#linear-gradient-6"/><linearGradient id="linear-gradient-14" x1="1530.41" y1="305.5" x2="1823.27" y2="305.5" xlink:href="#linear-gradient"/><linearGradient id="linear-gradient-15" x1="1530.41" y1="293.01" x2="1823.27" y2="293.01" xlink:href="#linear-gradient-2"/><linearGradient id="linear-gradient-16" x1="1530.41" y1="218.97" x2="1823.26" y2="218.97" xlink:href="#linear-gradient-3"/><linearGradient id="linear-gradient-17" x1="1614.87" y1="114.77" x2="1738.81" y2="114.77" xlink:href="#linear-gradient-2"/><linearGradient id="linear-gradient-18" x1="1657.18" y1="218.41" x2="1696.07" y2="218.41" xlink:href="#linear-gradient-2"/><linearGradient id="linear-gradient-19" x1="1644.62" y1="219.19" x2="1709.12" y2="219.19" xlink:href="#linear-gradient-2"/><linearGradient id="linear-gradient-21" x1="1631.78" y1="216.8" x2="1721.96" y2="216.8" xlink:href="#linear-gradient-2"/><radialGradient id="radial-gradient-3" cx="1676.87" cy="420.34" r="176.29" gradientTransform="translate(17.68 -65.13) rotate(2.24)" xlink:href="#radial-gradient"/><linearGradient id="linear-gradient-22" x1="1489.14" y1="1147.3" x2="1885.19" y2="1147.3" xlink:href="#linear-gradient-6"/></defs><title>Artboard 1</title><g class="cls-1"><g id="Layer_1" data-name="Layer 1"><polygon class="cls-2" points="459.33 158.24 166.47 158.24 166.47 412.83 284.34 412.83 312.9 452.77 341.46 412.83 459.33 412.83 459.33 158.24"/><polygon class="cls-3" points="459.33 158.24 166.47 158.24 166.47 412.83 284.34 412.83 312.9 452.77 341.46 412.83 459.33 412.83 459.33 158.24"/><polygon class="cls-4" points="459.33 145.75 166.47 145.75 166.47 400.34 284.34 400.34 312.9 440.27 341.46 400.34 459.33 400.34 459.33 145.75"/><text class="cls-5" transform="translate(218.91 345.2)">H<tspan class="cls-6" x="22.13" y="0">v</tspan><tspan x="37.47" y="0">o</tspan><tspan class="cls-7" x="55.29" y="0">r</tspan><tspan x="65.14" y="0"> </tspan><tspan class="cls-8" x="72.81" y="0">k</tspan><tspan x="87.85" y="0">omme</tspan><tspan class="cls-7" x="178.12" y="0">r</tspan><tspan x="187.97" y="0"> </tspan><tspan x="12.36" y="35.94">tingene f</tspan><tspan class="cls-9" x="135" y="35.94">r</tspan><tspan class="cls-10" x="145.22" y="35.94">a</tspan><tspan x="161.27" y="35.94">?</tspan></text><path class="cls-3" d="M459.32,168.23a146.43,146.43,0,1,1-292.85,0Z"/><path class="cls-11" d="M459.32,145.75a146.43,146.43,0,1,1-292.85,0Z"/><path class="cls-12" d="M250.93,145.75a62,62,0,0,1,123.94,0Z"/><text class="cls-13" transform="translate(291.87 135.35)">01</text><path class="cls-14" d="M335,969.3q-75.48,0-151,.06a8.58,8.58,0,0,1-6.78-2.77q-20-20.22-40.19-40.22a7.26,7.26,0,0,1-2.36-5.71q.09-56.05,0-112.09c0-3.24.92-4.13,4.14-4.13q152,.12,304,0a6.48,6.48,0,0,1,5,2q20.46,20.61,41.08,41.06a7.31,7.31,0,0,1,2.19,5.79q-.07,55.64,0,111.27c0,3.75-1,4.78-4.76,4.77Q410.67,969.2,335,969.3ZM191.06,929.87v15.52c0,12.63,0,12.63,12.53,12.11a2.81,2.81,0,0,1,.41,0c2.13.23,2.9-.76,2.83-2.85a84.05,84.05,0,0,1,0-9c.1-1.52-1.21-3.92,1.5-4.37,2.37-.4,4.74-.54,6.36,2.22,2.35,4,5.17,7.67,7.64,11.58a4.37,4.37,0,0,0,4.26,2.44c3.94-.14,7.89-.09,11.84,0,2.57.05,3.32-.55,1.6-2.93-3.09-4.3-6-8.72-9-13.09-1.14-1.65-2-2.88.51-4.52,7.33-4.86,9.93-11.83,8-20.1-1.77-7.56-7.77-12.76-16.33-13.77-9.63-1.13-19.31-.26-29-.51-3-.07-3.22,1.74-3.22,4C191.08,914.35,191.07,922.11,191.06,929.87Zm239.82.08c0,7.64.17,15.28-.08,22.91-.13,3.82,1.23,4.82,4.92,4.73,10.08-.24,20.17-.08,30.26-.08s10.06,0,9.63-10.09c-.1-2.53-.82-3.6-3.58-3.54-7.49.17-15-.07-22.49.11-3.16.08-3.16-1.66-3.08-3.87.08-2-.37-4.12,3-4,4.76.23,9.54.14,14.31,0,10.26-.23,8.63,2.13,8.89-9.16.06-2.74-1.07-3.52-3.64-3.47-6.41.11-12.82,0-19.23.07-2.44,0-3.44-.69-3.33-3.24.11-2.34,0-4.32,3.31-4.21,5.31.17,10.63,0,15.95,0,9.79,0,9.68,0,9.68-9.91,0-2.89-.92-3.77-3.73-3.74q-18.4.16-36.81,0c-3.05,0-4.05,1.12-4,4.08C431,914.41,430.88,922.18,430.88,930Zm-177.95.33c0,7.77.11,15.54-.06,23.3-.07,3,.87,4,3.95,4,10.63-.16,21.26-.06,31.89-.06,9.07,0,8.92,0,9.08-9.27.06-3.3-.69-4.53-4.22-4.39-6.8.29-13.63,0-20.44.12-2.76,0-4.51-.09-4.53-3.78,0-3.84,1.71-4.15,4.71-4,4.08.18,8.18,0,12.27,0,9.13,0,9,0,8.85-9.18-.05-2.74-1-3.52-3.61-3.47-6.13.12-12.27-.1-18.4.09-2.89.08-3.77-1-3.77-3.74s1.13-3.81,3.89-3.73c5,.14,10.09.12,15.13,0,11.65-.25,9.54,2.14,9.84-10.34.06-2.6-1.13-3.28-3.45-3.27q-18.81.07-37.62,0c-2.55,0-3.62.82-3.56,3.56C253,914.19,252.93,922.24,252.93,930.28Zm107.64-8.52c0-6-.1-10.87,0-15.77.07-2.5-.94-3.45-3.34-3.39-2.87.07-5.74.14-8.59,0-3.09-.18-4.3.83-4.22,4.16.22,9,.13,18,.05,27-.05,5.28-2.05,8.55-5.75,9.87-7.29,2.6-13.28-1.44-13.39-9.25-.13-9.4-.09-18.81,0-28.21,0-2.34-.6-3.61-3.18-3.53-3.26.1-6.54.08-9.81,0-2.26,0-3.07.92-3.05,3.2.09,10.5-.35,21,.18,31.48.45,8.9,4.71,15.82,13.42,19.31,5.74,2.31,11.75,2.33,17.69,1.54,10.91-1.43,17.38-8.22,19.33-19.09C361,932.93,360.18,926.81,360.57,921.76Zm36.48,36.74a25.84,25.84,0,0,0,14.55-4.42c8.54-5.91,9.82-22.22-2.25-27.28a66.28,66.28,0,0,0-9.24-3.17c-2.77-.71-5.57-1.34-8.27-2.24-1.64-.55-3.51-1.37-3-3.68.43-2.09,2.25-2.56,4.07-2.74,3.2-.32,6.15.78,9.19,1.51,2.68.64,4.79,4.39,7.49,2.58,2.33-1.55,3.5-4.77,5.42-7,1.79-2.12,1.43-3.51-.81-4.85-9.37-5.62-19.34-7.2-29.74-3.78A16.59,16.59,0,0,0,372.79,919c-.12,7.36,3.28,12,11.28,15.16,2.14.85,4.4,1.4,6.61,2,3,.86,6,1.59,9,2.56a3.14,3.14,0,0,1,2.36,3.78c-.34,1.79-1.82,2.33-3.34,2.47a28.51,28.51,0,0,1-12.41-1.77c-2.78-1-5.05-4.74-7.72-3.56s-4,4.66-6.23,6.82c-2.38,2.31-1.31,3.57.81,5.05C379.84,956.28,387.31,958.31,397.05,958.5Z"/><path class="cls-14" d="M213.86,916.43c2.16.18,4.35-.21,6.47.57a5.43,5.43,0,0,1,3.86,5.62,5.23,5.23,0,0,1-3.75,5.29c-3.84,1.25-7.81.91-11.75.77-1.34,0-1.88-.89-1.87-2.18,0-1,0-1.91,0-2.86C206.9,914.92,205.87,916.77,213.86,916.43Z"/><path class="cls-15" d="M465.3,687.7c14-74.09,63.74-87.58,124.11-87.58"/><polygon class="cls-14" points="497.83 668.39 467.1 677.95 438.88 662.46 461.33 735.3 497.83 668.39"/><path class="cls-15" d="M160.93,687.7c-14-74.09-63.74-87.58-124.11-87.58"/><polygon class="cls-14" points="187.35 662.46 159.13 677.95 128.39 668.39 164.9 735.3 187.35 662.46"/><line class="cls-15" x1="312.9" y1="684.3" x2="312.9" y2="600.12"/><polygon class="cls-14" points="342.52 661.83 312.9 674.42 283.27 661.83 312.9 732.06 342.52 661.83"/><path class="cls-14" d="M323.39,536.93a19,19,0,1,0-21,0,30.45,30.45,0,0,0-19.94,28.53h5.07a25.36,25.36,0,0,1,50.72,0h5.07A30.45,30.45,0,0,0,323.39,536.93ZM299,521.08A13.95,13.95,0,1,1,312.9,535,14,14,0,0,1,299,521.08Z"/><path class="cls-14" d="M348.75,524.25a19,19,0,1,0-23.6-29.6,19.25,19.25,0,0,0-3.25,4.1,24.57,24.57,0,0,1,4.48,2.37,14.07,14.07,0,0,1,3.4-3.77A13.93,13.93,0,1,1,342,521.82a14.17,14.17,0,0,1-3.76.53c-.45,0-.89,0-1.33-.07a23.67,23.67,0,0,1-.86,5.29c.73-.06,1.45-.15,2.19-.15a25.52,25.52,0,0,1,25.36,25.36h5.07A30.47,30.47,0,0,0,348.75,524.25Z"/><path class="cls-14" d="M287.54,527.42c.74,0,1.46.09,2.18.15a24.25,24.25,0,0,1-.85-5.29c-.44,0-.88.07-1.33.07a14.18,14.18,0,0,1-3.77-.53,13.94,13.94,0,0,1,3.77-27.37,14.06,14.06,0,0,1,11.88,6.67,24.25,24.25,0,0,1,4.48-2.37,19.56,19.56,0,0,0-3.25-4.1,19,19,0,1,0-23.6,29.6,30.45,30.45,0,0,0-19.94,28.53h5.07a25.51,25.51,0,0,1,25.36-25.36Z"/><text class="cls-16" transform="translate(259.12 584.5)">Privat personer</text><text class="cls-16" transform="translate(37.4 580.49)">Genbrugsstationer</text><text class="cls-16" transform="translate(492.13 581.5)"><tspan class="cls-17">V</tspan><tspan x="10.27" y="0">irksomheder</tspan></text><path class="cls-14" d="M587.24,533c0-.32-1.66-.59-3.73-.62v-.47a.72.72,0,0,0,.36-.63.74.74,0,0,0-1.48,0,.72.72,0,0,0,.36.63v.47c-2.07,0-3.7.3-3.73.62h0v28.32h8.22V533Z"/><polygon class="cls-14" points="501.8 505.78 496.88 505.78 495.35 530.23 503.33 530.23 501.8 505.78"/><polygon class="cls-14" points="528.48 462.71 525.32 462.71 524.19 519.25 529.66 522.25 528.48 462.71"/><rect class="cls-14" x="520.5" y="528.96" width="1.62" height="1.67"/><rect class="cls-14" x="520.5" y="530.9" width="1.62" height="6.26"/><path class="cls-14" d="M522.26,527.19a1.75,1.75,0,0,0-1.73,1.49H524A1.77,1.77,0,0,0,522.26,527.19Z"/><rect class="cls-14" x="522.4" y="528.96" width="1.62" height="1.67"/><rect class="cls-14" x="522.4" y="530.9" width="1.62" height="6.26"/><polygon class="cls-14" points="549.34 502.25 546.89 502.25 546.89 520.55 549.34 521.89 549.34 502.25"/><rect class="cls-14" x="540.83" y="528.96" width="1.62" height="1.67"/><rect class="cls-14" x="540.83" y="530.9" width="1.62" height="6.26"/><path class="cls-14" d="M542.59,527.19a1.75,1.75,0,0,0-1.73,1.49h3.46A1.75,1.75,0,0,0,542.59,527.19Z"/><rect class="cls-14" x="542.73" y="528.96" width="1.62" height="1.67"/><rect class="cls-14" x="542.73" y="530.9" width="1.62" height="6.26"/><path class="cls-14" d="M566.79,519.24h.45v1.32l2.44,1.34V492.65h-2.44v.43h-.45v-.43h-.18v27.56l.18.1Zm0-26h.45v3.54h-.45Zm0,3.71h.45v3.55h-.45Zm0,3.71h.45v3.55h-.45Zm0,3.72h.45v3.54h-.45Zm0,3.71h.45v3.55h-.45Zm0,3.71h.45v3.55h-.45Zm0,3.72h.45v3.54h-.45Z"/><polygon class="cls-14" points="559.45 502.25 556.99 502.25 556.99 521.43 559.45 520.08 559.45 502.25"/><path class="cls-14" d="M571.86,522.68h-1.55l-7.42-4.08-7.37,4.08H554v.84h0v14.2h-2.46v-15H550l-7.42-4.08-7.38,4.08h-1.53v.84h0v14.2H531.2v-15h-1.54l-7.42-4.08-7.38,4.08h-1.53v.84h0v14.2h-5.91v23.57h70.34V537.72h-5.9Zm-11.32,5.61h.1a2.37,2.37,0,0,1,4.57,0h.1v9.43h-4.77Zm-20.33,0h.1a2.37,2.37,0,0,1,4.57,0h.1v9.43h-4.77Zm-20.33,0h.1a2.37,2.37,0,0,1,4.57,0h.1v9.43h-4.77ZM516,557.66h-4.49v-3.74H516Zm0-6.29h-4.49v-3.74H516Zm0-6.29h-4.49v-3.74H516Zm7.2,12.58h-4.49v-3.74h4.49Zm0-6.29h-4.49v-3.74h4.49Zm0-6.29h-4.49v-3.74h4.49Zm7.21,12.58h-4.49v-3.74h4.49Zm0-6.29h-4.49v-3.74h4.49Zm0-6.29h-4.49v-3.74h4.49Zm7.2,12.58h-4.49v-3.74h4.49Zm0-6.29h-4.49v-3.74h4.49Zm0-6.29h-4.49v-3.74h4.49Zm7.21,12.58h-4.49v-3.74h4.49Zm0-6.29h-4.49v-3.74h4.49Zm0-6.29h-4.49v-3.74h4.49Zm7.2,12.58h-4.49v-3.74H552Zm0-6.29h-4.49v-3.74H552Zm0-6.29h-4.49v-3.74H552Zm7.21,12.58h-4.49v-3.74h4.49Zm0-6.29h-4.49v-3.74h4.49Zm0-6.29h-4.49v-3.74h4.49Zm7.2,12.58H562v-3.74h4.49Zm0-6.29H562v-3.74h4.49Zm0-6.29H562v-3.74h4.49Zm7.21,12.58h-4.49v-3.74h4.49Zm0-6.29h-4.49v-3.74h4.49Zm0-6.29h-4.49v-3.74h4.49Z"/><rect class="cls-14" x="561.16" y="528.96" width="1.62" height="1.67"/><rect class="cls-14" x="561.16" y="530.9" width="1.62" height="6.26"/><path class="cls-14" d="M562.92,527.19a1.75,1.75,0,0,0-1.73,1.49h3.46A1.75,1.75,0,0,0,562.92,527.19Z"/><rect class="cls-14" x="563.06" y="528.96" width="1.62" height="1.67"/><rect class="cls-14" x="563.06" y="530.9" width="1.62" height="6.26"/><path class="cls-14" d="M491,561.29h15V530.61H491Zm8.3-28.4h1.49v2.77h-1.49Zm0,4.62h1.49v2.77h-1.49Zm0,4.62h1.49v2.77h-1.49Zm0,4.62h1.49v2.77h-1.49Zm0,4.62h1.49v2.77h-1.49Zm0,4.62h1.49v2.77h-1.49Zm-3-23.1h1.49v2.77h-1.49Zm0,4.62h1.49v2.77h-1.49Zm0,4.62h1.49v2.77h-1.49Zm0,4.62h1.49v2.77h-1.49Zm0,4.62h1.49v2.77h-1.49Zm0,4.62h1.49v2.77h-1.49Zm-3-23.1h1.49v2.77h-1.49Zm0,4.62h1.49v2.77h-1.49Zm0,4.62h1.49v2.77h-1.49Zm0,4.62h1.49v2.77h-1.49Zm0,4.62h1.49v2.77h-1.49Zm0,4.62h1.49v2.77h-1.49Z"/><polygon class="cls-18" points="125.42 503.12 117.04 503.12 117.04 524.35 125.42 515.38 125.42 503.12"/><path class="cls-18" d="M78,530v25.81h49.2V514.86L115.5,527.5V514.86L103.79,527.5V514.86L92.08,527.5V514.86Zm39.83,14.09h7v3.52h-7Zm0-4.68h7v3.51h-7Zm0-5.86h7V537h-7Zm-11.72,10.54h7v3.52h-7Zm0-4.68h7v3.51h-7Zm0-5.86h7V537h-7ZM94.42,544.06h8.2v3.52h-8.2Zm0-4.68h8.2v3.51h-8.2Zm0-5.86h8.2V537h-8.2ZM82.71,544.06h8.2v3.52h-8.2Zm0-4.68h8.2v3.51h-8.2Zm0-5.86h8.2V537h-8.2Z"/><path class="cls-18" d="M125.64,491.4c-8.78,2.48-6.86,8.37-6.14,10l.09-.05.18.32c1-2.07,2-4.1,3.06-6a29.47,29.47,0,0,1,2.87-4.13.52.52,0,0,0-.06-.12Zm-5.4,10.27c.93-2,1.88-3.95,3-5.8a28.36,28.36,0,0,1,2.69-3.9h0C126.59,493.8,128.12,499.6,120.24,501.67Z"/><path class="cls-18" d="M114.31,484.23c7.31,2.06,5.71,7,5.11,8.3l-.07,0-.15.27c-.81-1.72-1.62-3.42-2.54-5a25.37,25.37,0,0,0-2.39-3.44l0-.09Zm4.49,8.54c-.77-1.66-1.56-3.29-2.46-4.83a23.82,23.82,0,0,0-2.23-3.24h0C113.52,486.22,112.25,491,118.8,492.77Z"/><path class="cls-18" d="M125.29,483.05c-5.59,1.58-4.36,5.33-3.91,6.35l.06,0,.11.21c.62-1.32,1.24-2.62,2-3.83a18.69,18.69,0,0,1,1.83-2.63.22.22,0,0,0,0-.07Zm-3.44,6.53c.6-1.26,1.2-2.51,1.89-3.69a17.3,17.3,0,0,1,1.71-2.48h0C125.9,484.57,126.87,488.27,121.85,489.58Z"/><path class="cls-18" d="M116.71,479.69c4.28,1.2,3.34,4.06,3,4.85l0,0-.09.15c-.47-1-.95-2-1.49-2.92a13.54,13.54,0,0,0-1.39-2l0-.05Zm2.63,5c-.45-1-.92-1.93-1.44-2.82a13.54,13.54,0,0,0-1.3-1.9h0C116.25,480.85,115.51,483.67,119.34,484.68Z"/><path class="cls-19" d="M317.66,219.23a4.6,4.6,0,1,1-9.19,0,4.6,4.6,0,0,1,9.19,0Zm22.91-27A40.91,40.91,0,0,0,312.93,181a34.84,34.84,0,0,0-14.7,3.05,35.63,35.63,0,0,0-12.67,8.16,33.24,33.24,0,0,0-8.49,12.3A36.29,36.29,0,0,0,274,219.23a34.81,34.81,0,0,0,3.11,14.64,30.4,30.4,0,0,0,8.49,12.29,35.48,35.48,0,0,0,12.67,8.49,40.64,40.64,0,0,0,14.7,2.78,41.43,41.43,0,0,0,15-2.78,35.77,35.77,0,0,0,12.63-8.49,35,35,0,0,0,8.54-12.29,35.71,35.71,0,0,0,3.05-14.64,37.25,37.25,0,0,0-3.05-14.69,38.91,38.91,0,0,0-8.54-12.3ZM312.93,176.9a43.82,43.82,0,0,1,16.7,3.1,55,55,0,0,1,14,9.19,43.73,43.73,0,0,1,9.58,14,40.35,40.35,0,0,1,3.05,16,43,43,0,0,1-3.05,16.32,42.22,42.22,0,0,1-9.58,13.66,41.15,41.15,0,0,1-14,9.2,45.83,45.83,0,0,1-33.14,0,35.72,35.72,0,0,1-14-9.2,41.16,41.16,0,0,1-12.95-30,40.46,40.46,0,0,1,3.37-16,44.88,44.88,0,0,1,9.58-14,45.53,45.53,0,0,1,14-9.19,43.66,43.66,0,0,1,16.44-3.1ZM346,216.13a3.37,3.37,0,0,1,2.07.7,3.2,3.2,0,0,1,1,2.4,3.13,3.13,0,0,1-1,2.34,2.36,2.36,0,0,1-2.07,1,2.64,2.64,0,0,1-2.4-1,3.08,3.08,0,0,1-1-2.34,3.15,3.15,0,0,1,1-2.4,3.8,3.8,0,0,1,2.4-.7Zm-65.57,0a4.48,4.48,0,0,1,2.4.7,4.67,4.67,0,0,1,1,2.4,4.61,4.61,0,0,1-1,2.34,3,3,0,0,1-2.4,1,2.69,2.69,0,0,1-2.39-1,3.09,3.09,0,0,1-1-2.34,3.16,3.16,0,0,1,1-2.4,3.9,3.9,0,0,1,2.39-.7Zm29.38-28.62a4.49,4.49,0,0,1,.71-2.4,3.52,3.52,0,0,1,2.4-1,3.52,3.52,0,0,1,3.37,3.43,2.36,2.36,0,0,1-1,2,3,3,0,0,1-2.34,1,3.48,3.48,0,0,1-2.4-1,3.33,3.33,0,0,1-.71-2Zm0,63.77a3.38,3.38,0,0,1,.71-2.07,3.77,3.77,0,0,1,2.4-1,3.16,3.16,0,0,1,2.34,1,2.39,2.39,0,0,1,1,2.07,3.43,3.43,0,0,1-3.37,3.37,3.69,3.69,0,0,1-2.4-1,4.74,4.74,0,0,1-.71-2.39Zm3.11-41.3a9.2,9.2,0,0,0-9.25,9.25v2l-14.37,21.17,21.55-14h2.07a9.23,9.23,0,0,0,9.52-9.2,4.45,4.45,0,0,0-.33-2.07L336.81,196l-21.87,14.37a3.8,3.8,0,0,0-2-.38Z"/><circle class="cls-20" cx="312.9" cy="420.34" r="176.29" transform="translate(-16.17 12.53) rotate(-2.24)"/><rect class="cls-21" x="118.74" y="1055.92" width="389.06" height="182.76" rx="21.57" ry="21.57"/><text class="cls-22" transform="translate(159.08 1089.9)">På REUSE modtager vi alle vores ting, fra<tspan x="0" y="14.4"> </tspan><tspan x="0" y="28.8">- </tspan><tspan class="cls-23" x="7.33" y="28.8">	</tspan><tspan x="36" y="28.8">dig som har noget til at stå der hjemme vil køre til </tspan><tspan class="cls-24" x="300.77" y="28.8">	</tspan><tspan class="cls-25" x="0" y="43.2">	</tspan><tspan x="36" y="43.2">genbrug, </tspan><tspan x="0" y="72">- </tspan><tspan class="cls-23" x="7.33" y="72">	</tspan><tspan x="36" y="72">Genbrugsstationer hvor folk har valgt at tingene </tspan><tspan class="cls-26" x="292.15" y="72">	</tspan><tspan class="cls-25" x="0" y="86.4">	</tspan><tspan x="36" y="86.4">gerne må gives videre</tspan><tspan x="0" y="115.2">- </tspan><tspan class="cls-23" x="7.33" y="115.2">	</tspan><tspan class="cls-27" x="36" y="115.2">V</tspan><tspan x="43.79" y="115.2">irksomheder der køber nyt og skal af med det </tspan><tspan class="cls-28" x="288.56" y="115.2">	</tspan><tspan class="cls-25" x="0" y="129.6">	</tspan><tspan x="36" y="129.6">gamle.</tspan></text><path class="cls-15" d="M776.58,734.49c3.86-129.86,25.86-336.22,123.48-252.14"/><polygon class="cls-14" points="806.74 712.53 776.9 724.58 747.5 711.46 775.86 782.21 806.74 712.53"/><path class="cls-15" d="M1222,734.49c-3.86-129.86-25.86-336.22-123.48-252.14"/><polygon class="cls-14" points="1251.04 711.46 1221.64 724.58 1191.79 712.53 1222.67 782.21 1251.04 711.46"/><polygon class="cls-29" points="1144.27 158.24 851.41 158.24 851.41 412.83 969.28 412.83 997.84 452.77 1026.4 412.83 1144.27 412.83 1144.27 158.24"/><polygon class="cls-3" points="1144.27 158.24 851.41 158.24 851.41 412.83 969.28 412.83 997.84 452.77 1026.4 412.83 1144.27 412.83 1144.27 158.24"/><polygon class="cls-30" points="1144.27 145.75 851.41 145.75 851.41 400.34 969.28 400.34 997.84 440.27 1026.4 400.34 1144.27 400.34 1144.27 145.75"/><text class="cls-5" transform="translate(922.5 345.2)">Vi sorterer!</text><path class="cls-3" d="M1144.26,168.23a146.43,146.43,0,1,1-292.85,0Z"/><path class="cls-31" d="M1144.26,145.75a146.43,146.43,0,1,1-292.85,0Z"/><path class="cls-32" d="M935.87,145.75a62,62,0,1,1,123.94,0Z"/><text class="cls-13" transform="translate(976.81 135.35)">02</text><path class="cls-33" d="M982.8,177.73c1.43,1.62,2.62,3.45,3.91,5.19q5.84,7.91,11.62,15.84c1.3,1.79,2.59,3.59,3.91,5.36a1.22,1.22,0,0,1,.15,1.57,1.1,1.1,0,0,1-1.43.33c-1.4-.56-2.78-1.14-4.17-1.72-2.56-1.06-5.13-2.12-7.68-3.19-.51-.22-.66,0-.63.48,0,.26,0,.53,0,.79q0,26.79,0,53.59c0,1.47-.33,1.81-1.75,1.81h-8.91c-1.4,0-1.74-.36-1.74-1.85V202c0-1.18,0-1.16-1.06-.71-2.89,1.22-5.79,2.4-8.69,3.6-.88.37-1.75.75-2.64,1.1a1.12,1.12,0,0,1-1.52-.38,1.25,1.25,0,0,1,.21-1.55l11.36-15.55,7.47-10.17c.17-.22.38-.41.57-.62Z"/><path class="cls-34" d="M1012.86,260.67a46.4,46.4,0,0,1-3.06-4c-2-2.71-4-5.45-6-8.18-2.26-3.08-4.5-6.17-6.75-9.25-1.21-1.64-2.41-3.29-3.63-4.93a1.22,1.22,0,0,1-.14-1.56,1.08,1.08,0,0,1,1.42-.33q2.92,1.16,5.83,2.37l6,2.52c.59.25.68.18.68-.53V182.58c0-1.66.28-2,1.89-2h8.71c1.45,0,1.79.36,1.79,1.88v53.84c0,1.19,0,1.18,1.07.74l11-4.55a3,3,0,0,1,.66-.22,1.05,1.05,0,0,1,1.21.47,1.08,1.08,0,0,1-.08,1.34c-1.07,1.48-2.13,3-3.2,4.43l-6.16,8.39-9.65,13.17c-.15.2-.35.37-.52.56Z"/><path class="cls-35" d="M956.25,700.9A11.89,11.89,0,1,1,944.36,689,11.89,11.89,0,0,1,956.25,700.9Z"/><path class="cls-36" d="M951.67,700.9a7.31,7.31,0,1,1-7.31-7.31A7.31,7.31,0,0,1,951.67,700.9Z"/><path class="cls-35" d="M948,701.36a3.62,3.62,0,1,1-3.62-3.62A3.63,3.63,0,0,1,948,701.36Z"/><path class="cls-37" d="M941.57,683.62l.56,18s-.56,2.23,2.23,2.42c0,0,1.86.37,3-2l7.06-17.28Z"/><polygon class="cls-3" points="938.6 679.16 940.27 685.48 956.25 685.48 956.25 679.9 938.6 679.16"/><path class="cls-3" d="M945.66,701.11a1.4,1.4,0,1,1-1.39-1.39A1.4,1.4,0,0,1,945.66,701.11Z"/><path class="cls-35" d="M1063.2,700.9A11.89,11.89,0,1,1,1051.31,689,11.89,11.89,0,0,1,1063.2,700.9Z"/><path class="cls-36" d="M1058.62,700.9a7.31,7.31,0,1,1-7.31-7.31A7.31,7.31,0,0,1,1058.62,700.9Z"/><path class="cls-35" d="M1054.94,701.36a3.63,3.63,0,1,1-3.63-3.62A3.64,3.64,0,0,1,1054.94,701.36Z"/><path class="cls-37" d="M1048.53,683.62l.55,18s-.55,2.23,2.23,2.42c0,0,1.86.37,3-2l7.06-17.28Z"/><polygon class="cls-3" points="1045.55 679.16 1047.22 685.48 1063.2 685.48 1063.2 679.9 1045.55 679.16"/><path class="cls-3" d="M1052.61,701.11a1.39,1.39,0,1,1-1.39-1.39A1.4,1.4,0,0,1,1052.61,701.11Z"/><path class="cls-37" d="M1039.82,541.05l48.06-.18-10.16-17.09a10.69,10.69,0,0,0-9.16-4.71H926.87a10.7,10.7,0,0,0-9.17,4.71l-10.16,17.09,48.06.18v.32l42.11-.16,42.11.16Z"/><path class="cls-38" d="M1067.79,537.09l-6-10a8.59,8.59,0,0,0-7.35-3.78H940.94a8.56,8.56,0,0,0-7.34,3.78l-6,10Z"/><rect class="cls-3" x="898.63" y="566.39" width="17.09" height="8.55"/><polygon class="cls-3" points="915.72 574.93 906.8 574.93 905.56 566.39 915.72 566.39 915.72 574.93"/><rect class="cls-3" x="1079.95" y="566.39" width="17.09" height="8.55"/><polygon class="cls-3" points="1079.95 574.93 1088.87 574.93 1090.11 566.39 1079.95 566.39 1079.95 574.93"/><path class="cls-37" d="M997.84,548.39v-.21l-5.5.11-6.27-.11v.24L907.54,550s11.52,116.3,11.89,117.42,0,11.51,13,13.37H1064.1c13-1.86,12.63-12.26,13-13.37S1089,550,1089,550Z"/><path class="cls-3" d="M907.92,553.81h180.7c.24-2.42.38-3.77.38-3.77l-91.16-1.65v-.21l-5.5.11-6.27-.11v.24L907.54,550S907.68,551.39,907.92,553.81Z"/><path class="cls-39" d="M909.77,556l11.15,105.16s-.37,16.72,16.35,17.83h71l-50.16-7.43s-14.49-.74-17.09-18.2-9.29-97.73-9.29-97.73Z"/><polygon class="cls-3" points="923.2 550.22 925.24 561.93 927.1 561.93 928.31 550.04 923.2 550.22"/><polygon class="cls-3" points="959.24 550.22 961.28 561.93 963.14 561.93 964.35 550.04 959.24 550.22"/><polygon class="cls-3" points="995.28 550.22 997.33 561.93 999.18 561.93 1000.39 550.04 995.28 550.22"/><polygon class="cls-3" points="1031.33 550.22 1033.37 561.93 1035.23 561.93 1036.43 550.04 1031.33 550.22"/><polygon class="cls-3" points="1067.37 550.22 1069.41 561.93 1071.27 561.93 1072.48 550.04 1067.37 550.22"/><rect class="cls-3" x="904.97" y="544.22" width="185.54" height="1.73"/><rect class="cls-37" x="903.39" y="545.83" width="188.7" height="5.7"/><rect class="cls-3" x="903.39" y="539.14" width="188.7" height="5.7"/><rect class="cls-39" x="903.39" y="539.09" width="188.7" height="3.68"/><path class="cls-39" d="M911.87,537.4,919.8,524s3.22-4.46,11.15-4.21h77.53l-71.34,1.48s-2.23-.74-4.71,2-7.92,13.88-7.92,13.88Z"/><path class="cls-40" d="M997.88,589.57c.08.09.15.19.22.28.95,1.31,1.88,2.63,2.78,4,.28.41.53.84.78,1.28-.95.43-1.89.86-2.85,1.28l0,0a4.37,4.37,0,0,0-.43.22,26.54,26.54,0,0,0,2.91,1.28c1.62.65,3.25,1.25,4.85,2s3,1.2,4.53,1.71h0l.26.05c.05-.16.09-.32.15-.47h0c.31-1,.64-2,1-3,.39-1.16.78-2.3,1.18-3.45a5.1,5.1,0,0,1,.37-1.08c.24-.68.46-1.36.7-2,.18-.51.35-1,.54-1.51l0,0c0-.14.11-.28.16-.41l0,0a7.14,7.14,0,0,1-1,.39c-.77.36-1.59.65-2.39,1-.75-1.05-1.49-2.09-2.23-3.15a25.62,25.62,0,0,0-2.42-3.08c-.37-.39-.93-.68-1.34-1a1.84,1.84,0,0,0-1-.33c-2.41-.11-4.85.07-7.26.14-2,.06-4-.13-6,.09a4.21,4.21,0,0,0-1.87.21,2.73,2.73,0,0,0-.73.53s0,0,0,0a.13.13,0,0,0-.06,0,53.13,53.13,0,0,0-4.89,5.69c-.54.65-1.09,1.29-1.62,1.94.1.07.2.16.31.23l0,0c1.54,1,3,2.22,4.47,3.32a41.34,41.34,0,0,0,4.22,3.07h0a7.45,7.45,0,0,1,.62.42c.08-.14.17-.28.25-.43.63-1.1,1.35-2.14,2-3.22s1.24-2,1.86-3.06A22.88,22.88,0,0,1,997.88,589.57Zm-5.94-5c-.43-.14-1.09-.46-1.54-.31-.3.1-.17.09-.46.06,0,0,0-.07,0-.08.37,0,.6-.27,1-.22s.57.11.86.17a5.16,5.16,0,0,1,2,.94,19.43,19.43,0,0,1,3.9,3.89c.07.1-.08.27-.17.18-.56-.53-1-1.18-1.58-1.69s-1.24-1.13-1.87-1.67A6.41,6.41,0,0,0,991.94,584.62Z"/><path class="cls-40" d="M1021.87,609.56s0,0,0-.06a.11.11,0,0,0,0-.08,51.67,51.67,0,0,0-2.34-7.13c-.27-.8-.54-1.59-.82-2.39l-.35.14s0,0,0,0c-1.65.8-3.46,1.4-5.16,2.1a41.42,41.42,0,0,0-4.81,2h0c-.22.12-.46.21-.69.31.08.15.17.29.25.43.61,1.12,1.13,2.27,1.71,3.4s1.11,2.11,1.64,3.17a21,21,0,0,1,1.42,3.09l-.36,0c-1.6.14-3.22.24-4.83.32-.5,0-1,0-1.5,0,.12-1,.23-2.06.38-3.09,0,0,0,0,0,0s0-.31,0-.47a28.68,28.68,0,0,0-2.6,1.82c-1.39,1-2.75,2.13-4.18,3.14s-2.59,1.94-3.82,3h0l-.18.2c.11.12.22.24.32.37h0c.7.79,1.38,1.58,2,2.38l2.34,2.79a4.44,4.44,0,0,1,.73.88l1.38,1.64,1,1.25v0l.27.35h0a5.9,5.9,0,0,1,.17-1.05c.1-.84.28-1.7.44-2.55,1.27-.1,2.55-.19,3.83-.27a26.81,26.81,0,0,0,3.9-.48c.51-.12,1.06-.45,1.57-.61a1.84,1.84,0,0,0,.78-.65c1.34-2,2.45-4.19,3.64-6.29,1-1.73,2.17-3.32,3-5.15a4.15,4.15,0,0,0,.79-1.71A2.43,2.43,0,0,0,1021.87,609.56Zm-.59,1.55a7.34,7.34,0,0,1-3.23,2.89,10.58,10.58,0,0,1-4.42.66c-.17,0-.1-.24,0-.27a23.53,23.53,0,0,0,4.25-.85,8.78,8.78,0,0,0,3.3-2.49S1021.33,611.05,1021.28,611.11Z"/><path class="cls-40" d="M994.81,615.26c0-.25,0-.51,0-.75l-.48,0c-1.27.12-2.54.14-3.8.21L987,615a20.44,20.44,0,0,1-3.41,0c0-.11.07-.22.11-.34.5-1.53,1.05-3.05,1.63-4.55.18-.48.39-.92.6-1.38.9.52,1.8,1,2.69,1.59v0l.43.21a28.84,28.84,0,0,0-.63-3.1c-.4-1.7-.85-3.38-1.2-5.1s-.74-3.14-1.2-4.69h0a1.79,1.79,0,0,1-.12-.24l-.47.14h0l-3,.93-3.49,1a4.21,4.21,0,0,1-1.1.32l-2.07.61-1.54.43h0l-.42.11,0,0a5.91,5.91,0,0,1,.89.58c.74.43,1.45.93,2.16,1.42-.42,1.2-.85,2.41-1.29,3.62a25.92,25.92,0,0,0-1.12,3.77c-.1.51,0,1.14-.07,1.67a2.13,2.13,0,0,0,.28,1c1.31,2,2.86,3.92,4.3,5.85,1.2,1.6,2.18,3.3,3.52,4.82a4.2,4.2,0,0,0,1.25,1.42,2.52,2.52,0,0,0,.84.28h.08a.09.09,0,0,0,.07,0,53.35,53.35,0,0,0,7.47.71l2.52.21c0-.13,0-.25,0-.38h0c-.09-1.83.08-3.73.12-5.57a39.37,39.37,0,0,0,.08-5.21Zm-11.71-.34a12.81,12.81,0,0,1-5.22-.47c-1.28-.38-3-.81-3.37-2.28,0,0,0-.06,0,0,.62,1.31,2.49,1.74,3.82,2.05a34.22,34.22,0,0,0,4.75.42C983.3,614.64,983.24,614.9,983.1,614.92Z"/><path d="M747.23,957.63h-3.08v-8a2.12,2.12,0,0,0-2.15-2.09h-2.9a2.13,2.13,0,0,0-2.16,2.09v17.49a2.26,2.26,0,0,0,2.16,2.23H742a2.25,2.25,0,0,0,2.15-2.23v-7.64h3.08a1,1,0,0,0,.9-1h0A.8.8,0,0,0,747.23,957.63Z"/><path d="M807.93,957.63H811v-8a2.14,2.14,0,0,1,2.16-2.09h2.91a2.12,2.12,0,0,1,2.14,2.09v17.49a2.25,2.25,0,0,1-2.14,2.23h-2.91a2.27,2.27,0,0,1-2.16-2.23v-7.64h-3.07a1.08,1.08,0,0,1-1-1h0A.9.9,0,0,1,807.93,957.63Z"/><path class="cls-41" d="M777.53,822.88H726.24a2.16,2.16,0,0,0-2.1,2.18v7.29a2.09,2.09,0,0,0,2.1,2.1h51.29Z"/><path class="cls-14" d="M830.91,832.35v-7.29a2.07,2.07,0,0,0-2-2.18H777.53v11.57h51.39A2,2,0,0,0,830.91,832.35Z"/><path class="cls-42" d="M777.53,838.74v-4.29H728.14l.1,3.22C738.87,837.49,757.8,837.47,777.53,838.74Z"/><path class="cls-41" d="M728.24,837.55l4.1,102.93c0,4,2.86,7.38,6.37,7.38h6.86v13.86c0,2.67,3.3,4.82,7.35,4.82h24.61V838.61C757.8,837.34,738.87,837.37,728.24,837.55Z"/><path class="cls-42" d="M826.55,845.71l.48-11.26h-49.5v4.29C794.88,839.84,812.56,841.91,826.55,845.71Z"/><path class="cls-14" d="M777.53,838.61V966.54h24.71c4,0,7.34-2.15,7.34-4.82V947.86h6.87c3.52,0,6.36-3.33,6.36-7.38l3.74-94.87C812.56,841.81,794.88,839.71,777.53,838.61Z"/><path id="_Compound_Path_" data-name="&lt;Compound Path&gt;" class="cls-43" d="M762.43,905.22a8.51,8.51,0,0,1-4.25-1,4.38,4.38,0,0,1-2.25-2.23,6.46,6.46,0,0,1-.33-1.11,7.19,7.19,0,0,1-.11-1.26,7.1,7.1,0,0,1,.29-2.12,7.87,7.87,0,0,1,.7-1.65,6.88,6.88,0,0,1,.71-1.05,2.64,2.64,0,0,1,.44-.45l-3.32-2,10.83-.33,5,9.43L767,899.69l-.44.45q-.3.3-.69.75l-.76.89a3.8,3.8,0,0,0-.5.72,2.17,2.17,0,0,0-.32,1,1.34,1.34,0,0,0,.55,1.13,5,5,0,0,0,.86.53Zm31.24,1.4a7.16,7.16,0,0,0,2.9-.7,10.2,10.2,0,0,0,2.24-1.46,12.49,12.49,0,0,0,1.38-1.41c.3-.39.52-.68.64-.86a12.75,12.75,0,0,1-.77,1.86c-.31.59-.7,1.31-1.19,2.15l-.64,1.17c-.24.53-.5,1.08-.77,1.64q-1,2.16-1.65,3.42a22.58,22.58,0,0,1-1.41,2.43,9.1,9.1,0,0,1-1.61,1.88,2.73,2.73,0,0,1-1.72.72l-5.53,0,0,3.81-5.76-9.16,5.68-9.09v3.63ZM772.55,875l6-.08a59.63,59.63,0,0,1,6.63.2c1.41.15,2.3.55,2.68,1.2l.5.91c.27.47.58,1,.94,1.59l.88,1.43c.22.37.37.65.47.83l3.28-1.93-4.51,10.12-11.2-.91,3.09-1.85-4-6.7a9.23,9.23,0,0,0-2.06-2.56A8.25,8.25,0,0,0,773,875.8a10.45,10.45,0,0,0-1.91-.54,9,9,0,0,0-1.14-.1A23.17,23.17,0,0,1,772.55,875ZM758,905.2a4.67,4.67,0,0,1-2.39-2l.59,1c.27.48.63,1.12,1.09,1.92s.93,1.64,1.44,2.53.87,1.55,1.09,2a4.73,4.73,0,0,1,.23.52c.38.8.74,1.51,1.07,2.15s.71,1.28,1.13,2a8.75,8.75,0,0,0,1.32,1.66,1.93,1.93,0,0,0,1.28.64l12.13-.11-.11-11.64-14.77.14A9.77,9.77,0,0,1,758,905.2Zm34.46-.4c-.55-.86-1.73-2.69-3.54-5.47s-2.87-4.43-3.18-4.92l9.52-5.76q.13.23.66,1.2c.35.65.77,1.44,1.28,2.36l2.31,4.32c.51.94.87,1.6,1.09,2a2.11,2.11,0,0,1,.24,1.06,5.54,5.54,0,0,1-.4,2,5.7,5.7,0,0,1-.62.89,12.52,12.52,0,0,1-1.38,1.42,9.38,9.38,0,0,1-2.24,1.49,7,7,0,0,1-2.87.72A12.44,12.44,0,0,1,792.47,904.8Zm-22.31-12.64-9.44-5.23c.09-.16.52-.86,1.28-2.11.16-.25.54-.89,1.17-1.93l1.67-2.74c.49-.79.88-1.46,1.19-2s.52-.89.64-1.08a2,2,0,0,1,1-.85,9.09,9.09,0,0,1,1.83-.53,10.23,10.23,0,0,1,1.25.11,9.08,9.08,0,0,1,1.94.54,8.39,8.39,0,0,1,4.28,3.85l.15.23.42.7Z"/><path d="M967.43,957.53h-3.11v-7.82a2.22,2.22,0,0,0-2.12-2.23h-2.92a2.27,2.27,0,0,0-2.17,2.23v17.52a2.21,2.21,0,0,0,2.17,2.16h2.92a2.16,2.16,0,0,0,2.12-2.16v-7.8h3.11a.91.91,0,0,0,1-.91v0A1,1,0,0,0,967.43,957.53Z"/><path d="M1028.25,957.53h3.11v-7.82a2.23,2.23,0,0,1,2.13-2.23h2.91a2.18,2.18,0,0,1,2.07,2.23v17.52a2.11,2.11,0,0,1-2.07,2.16h-2.91a2.16,2.16,0,0,1-2.13-2.16v-7.8h-3.11a.84.84,0,0,1-.87-.91v0A.88.88,0,0,1,1028.25,957.53Z"/><path class="cls-44" d="M997.88,822.78H946.4a2.08,2.08,0,0,0-2.09,2.09v7.3a2.08,2.08,0,0,0,2.09,2.09h51.48Z"/><path class="cls-41" d="M1051.37,832.17v-7.3a2.07,2.07,0,0,0-2.09-2.09h-51.4v11.48h51.4A2.07,2.07,0,0,0,1051.37,832.17Z"/><path class="cls-45" d="M997.88,838.57v-4.31H948.3l.15,3.23C959.11,837.32,978.07,837.3,997.88,838.57Z"/><path class="cls-44" d="M948.45,837.38l4.09,103.06c0,4.06,2.84,7.33,6.36,7.33h6.84v14c0,2.67,3.34,4.85,7.4,4.85h24.74V838.45C978.07,837.17,959.11,837.21,948.45,837.38Z"/><path class="cls-45" d="M1047,845.55l.43-11.29h-49.5v4.31C1015,839.67,1032.93,841.74,1047,845.55Z"/><path class="cls-41" d="M997.88,838.45V966.64h24.67c4.06,0,7.39-2.18,7.39-4.85v-14h6.84c3.53,0,6.38-3.27,6.38-7.33l3.79-95C1032.93,841.62,1015,839.55,997.88,838.45Z"/><path id="_Compound_Path_2" data-name="&lt;Compound Path&gt;" class="cls-43" d="M982.66,905.18a8.51,8.51,0,0,1-4.25-1,4.38,4.38,0,0,1-2.26-2.24,6.46,6.46,0,0,1-.33-1.11,7.19,7.19,0,0,1-.11-1.26,7.1,7.1,0,0,1,.29-2.12,7.86,7.86,0,0,1,1.41-2.71,2.64,2.64,0,0,1,.44-.45l-3.32-2,10.84-.34,5,9.45-3.14-1.78-.44.45q-.3.3-.69.75l-.76.89a4.16,4.16,0,0,0-.5.73,2,2,0,0,0-.32,1,1.33,1.33,0,0,0,.55,1.14,4.22,4.22,0,0,0,.86.52Zm31.3,1.4a7.16,7.16,0,0,0,2.9-.7,10,10,0,0,0,2.25-1.47,11,11,0,0,0,1.38-1.41,9.49,9.49,0,0,0,.64-.86,11.84,11.84,0,0,1-.77,1.87c-.31.59-.7,1.31-1.19,2.15l-.64,1.17c-.24.54-.51,1.08-.78,1.64-.67,1.44-1.21,2.59-1.64,3.43a24.63,24.63,0,0,1-1.42,2.44,9.1,9.1,0,0,1-1.61,1.88,2.68,2.68,0,0,1-1.72.72l-5.54,0,0,3.82-5.76-9.18,5.69-9.11,0,3.64ZM992.8,874.87l6.06-.08a62.24,62.24,0,0,1,6.63.2c1.42.16,2.31.56,2.69,1.21.06.12.23.42.5.9s.58,1,.94,1.6.66,1.06.88,1.43.38.65.47.84l3.29-1.94-4.52,10.14-11.22-.92,3.1-1.84-4-6.72a9.43,9.43,0,0,0-2.07-2.56,8,8,0,0,0-2.32-1.42,9,9,0,0,0-1.91-.54,7.77,7.77,0,0,0-1.14-.11A23.17,23.17,0,0,1,992.8,874.87Zm-14.57,30.29a4.72,4.72,0,0,1-2.39-2l.59,1c.27.48.63,1.12,1.09,1.92s.94,1.64,1.44,2.54.87,1.55,1.09,2a3.71,3.71,0,0,1,.24.52c.38.8.74,1.52,1.07,2.15s.71,1.29,1.13,2a8.75,8.75,0,0,0,1.32,1.66,1.92,1.92,0,0,0,1.29.64l12.15-.11-.11-11.66-14.8.14A9.82,9.82,0,0,1,978.23,905.16Zm34.52-.4c-.55-.87-1.73-2.69-3.54-5.49l-3.19-4.92,9.54-5.77c.1.15.31.55.66,1.2l1.28,2.36c1,2,1.82,3.39,2.32,4.34s.87,1.6,1.09,2a2.25,2.25,0,0,1,.25,1.07,6,6,0,0,1-.4,2,5.5,5.5,0,0,1-.63.89,12.49,12.49,0,0,1-1.38,1.43,9.59,9.59,0,0,1-2.24,1.49,7.12,7.12,0,0,1-2.88.72A13.3,13.3,0,0,1,1012.75,904.76ZM990.4,892.09,981,886.85l1.28-2.11c.16-.25.54-.89,1.17-1.93l1.68-2.75c.49-.79.88-1.46,1.19-2s.52-.9.64-1.08a2,2,0,0,1,1-.85,8.1,8.1,0,0,1,1.83-.53,8.4,8.4,0,0,1,1.26.1,10.44,10.44,0,0,1,1.94.54,8.22,8.22,0,0,1,2.29,1.38,8.56,8.56,0,0,1,2,2.49l.14.23c.16.24.3.47.43.69Z"/><path class="cls-46" d="M1209.84,831.43a.91.91,0,0,1-.11.16Zm-21.19-3.21c-.05-.17-.1-.34-.14-.51C1188.55,827.88,1188.6,828.05,1188.65,828.22Z"/><path class="cls-46" d="M1255.94,826.25l-.06.18Zm-21.16,3.4a4.27,4.27,0,0,1-.3-.44Z"/><path d="M1192,957.54h-3.1v-8a2.14,2.14,0,0,0-2.16-2.1h-2.93a2.15,2.15,0,0,0-2.17,2.1v17.62a2.27,2.27,0,0,0,2.17,2.25h2.93a2.26,2.26,0,0,0,2.16-2.25v-7.69h3.1a1,1,0,0,0,.91-1.06h0A.82.82,0,0,0,1192,957.54Z"/><path d="M1253.14,957.54h3.09v-8a2.15,2.15,0,0,1,2.18-2.1h2.93a2.13,2.13,0,0,1,2.15,2.1v17.62a2.25,2.25,0,0,1-2.15,2.25h-2.93a2.27,2.27,0,0,1-2.18-2.25v-7.69h-3.09a1.08,1.08,0,0,1-1-1.06h0A.91.91,0,0,1,1253.14,957.54Z"/><path class="cls-47" d="M1222.52,821.82h-51.66a2.19,2.19,0,0,0-2.12,2.2v7.34a2.11,2.11,0,0,0,2.12,2.11h51.66Z"/><path class="cls-44" d="M1276.29,831.36V824a2.09,2.09,0,0,0-2-2.2h-51.77v11.65h51.77A2,2,0,0,0,1276.29,831.36Z"/><path class="cls-48" d="M1222.52,837.8v-4.33h-49.75l.1,3.25C1183.59,836.54,1202.65,836.51,1222.52,837.8Z"/><path class="cls-47" d="M1172.87,836.6,1177,940.27c0,4.08,2.88,7.44,6.42,7.44h6.91v14c0,2.68,3.32,4.85,7.4,4.85h24.79V837.67C1202.65,836.39,1183.59,836.42,1172.87,836.6Z"/><path class="cls-48" d="M1271.9,844.82l.47-11.35h-49.85v4.33C1240,838.9,1257.8,841,1271.9,844.82Z"/><path class="cls-44" d="M1222.52,837.67V966.52h24.89c4.08,0,7.39-2.17,7.39-4.85v-14h6.92c3.54,0,6.41-3.36,6.41-7.44l3.77-95.55C1257.8,840.89,1240,838.78,1222.52,837.67Z"/><path id="_Compound_Path_3" data-name="&lt;Compound Path&gt;" class="cls-43" d="M1207.31,904.76a8.56,8.56,0,0,1-4.27-1,4.38,4.38,0,0,1-2.27-2.25,6.38,6.38,0,0,1-.34-1.12,7.3,7.3,0,0,1-.1-1.26,6.83,6.83,0,0,1,.28-2.13,8,8,0,0,1,1.43-2.73,2.31,2.31,0,0,1,.44-.45l-3.35-2,10.91-.34,5,9.5-3.15-1.79c-.1.09-.24.24-.45.45s-.43.45-.69.75-.52.6-.76.9a3.8,3.8,0,0,0-.51.73,2.07,2.07,0,0,0-.32,1,1.33,1.33,0,0,0,.55,1.14,4.19,4.19,0,0,0,.87.53Zm31.46,1.41a7.18,7.18,0,0,0,2.92-.71A9.8,9.8,0,0,0,1244,904a11.14,11.14,0,0,0,1.39-1.42c.31-.39.53-.68.65-.87a11.61,11.61,0,0,1-.78,1.88c-.31.6-.7,1.32-1.2,2.16-.3.57-.52,1-.64,1.18-.24.54-.51,1.09-.78,1.65q-1,2.17-1.65,3.45a24.86,24.86,0,0,1-1.43,2.45,8.94,8.94,0,0,1-1.62,1.89,2.65,2.65,0,0,1-1.73.72l-5.57,0,0,3.84-5.8-9.23,5.72-9.15v3.66Zm-21.26-31.88c1.06,0,3.09,0,6.08-.08a60.34,60.34,0,0,1,6.67.2c1.43.15,2.33.56,2.71,1.21.06.12.23.43.5.91s.58,1,1,1.61l.88,1.44c.22.37.38.65.47.84l3.31-2-4.54,10.21-11.29-.93,3.12-1.85-4-6.75a9.23,9.23,0,0,0-2.08-2.58,8.2,8.2,0,0,0-2.33-1.43,9.28,9.28,0,0,0-1.92-.54,8,8,0,0,0-1.15-.11A23.39,23.39,0,0,1,1217.51,874.29Zm-14.65,30.45a4.74,4.74,0,0,1-2.41-2c.13.22.33.56.6,1l1.09,1.93c.46.8.95,1.66,1.45,2.56s.88,1.56,1.1,2a5.5,5.5,0,0,1,.24.52c.38.8.74,1.53,1.07,2.16s.72,1.3,1.14,2a8.48,8.48,0,0,0,1.33,1.67,1.94,1.94,0,0,0,1.29.65l12.22-.12-.11-11.72-14.88.14A9.89,9.89,0,0,1,1202.86,904.74Zm34.7-.4q-.82-1.3-3.56-5.52c-1.82-2.8-2.89-4.46-3.2-5l9.58-5.8c.1.15.32.56.67,1.21l1.29,2.37,2.33,4.36c.51.94.88,1.61,1.1,2a2.19,2.19,0,0,1,.24,1.08,5.86,5.86,0,0,1-.4,2,5.5,5.5,0,0,1-.63.89,11.85,11.85,0,0,1-1.39,1.44,9.78,9.78,0,0,1-2.25,1.5,7.18,7.18,0,0,1-2.9.73A14.61,14.61,0,0,1,1237.56,904.34Zm-22.47-12.74-9.5-5.27,1.29-2.12c.16-.25.54-.9,1.18-1.94l1.68-2.76q.73-1.2,1.2-2c.3-.53.52-.9.64-1.08a2,2,0,0,1,1-.86,8.6,8.6,0,0,1,1.84-.53,8.4,8.4,0,0,1,1.26.1,9.9,9.9,0,0,1,1.95.55,8.11,8.11,0,0,1,2.31,1.39,8.45,8.45,0,0,1,2,2.49l.14.23c.16.25.3.48.43.7Z"/><path class="cls-15" d="M1012.85,501.67s-72.16-174-21.68,233.17"/><polygon class="cls-14" points="959.13 716.21 990.09 725.01 1017.93 708.85 997.25 782.21 959.13 716.21"/><circle class="cls-49" cx="997.84" cy="420.34" r="176.29" transform="translate(-15.65 39.27) rotate(-2.24)"/><rect class="cls-50" x="805.69" y="1059.94" width="389.06" height="182.76" rx="21.57" ry="21.57"/><text class="cls-22" transform="translate(846.03 1125.43)">Når vi har modtaget tingne, sortere vi dem så vi ved hvad <tspan x="0" y="14.4">der er kommet også det der er helt ubrugligt ikke ender </tspan><tspan x="0" y="28.8">med bare at stå. Derefter sætter vi det ud i vores skure så </tspan><tspan x="0" y="43.2">du kan finde det, næste gang du komme</tspan><tspan class="cls-51" x="214.8" y="43.2">r</tspan><tspan x="218.14" y="43.2">.</tspan></text><polygon class="cls-52" points="1823.27 158.24 1530.41 158.24 1530.41 412.83 1648.28 412.83 1676.84 452.77 1705.4 412.83 1823.27 412.83 1823.27 158.24"/><polygon class="cls-3" points="1823.27 158.24 1530.41 158.24 1530.41 412.83 1648.28 412.83 1676.84 452.77 1705.4 412.83 1823.27 412.83 1823.27 158.24"/><polygon class="cls-53" points="1823.27 145.75 1530.41 145.75 1530.41 400.34 1648.28 400.34 1676.84 440.27 1705.4 400.34 1823.27 400.34 1823.27 145.75"/><text class="cls-5" transform="translate(1585.38 345.2)">G<tspan class="cls-9" x="21.62" y="0">r</tspan><tspan class="cls-54" x="31.84" y="0">a</tspan><tspan x="48.04" y="0">tis </tspan><tspan class="cls-55" x="86.65" y="0">f</tspan><tspan x="96.77" y="0">o</tspan><tspan class="cls-7" x="114.59" y="0">r</tspan><tspan x="124.45" y="0" xml:space="preserve"> dig!</tspan></text><path class="cls-3" d="M1823.26,168.23a146.43,146.43,0,1,1-292.85,0Z"/><path class="cls-56" d="M1823.26,145.75a146.43,146.43,0,1,1-292.85,0Z"/><path class="cls-57" d="M1614.87,145.75a62,62,0,0,1,123.94,0Z"/><text class="cls-13" transform="translate(1655.81 135.35)">03</text><path class="cls-58" d="M1676.81,172.69c-25.84,0-46.25,20.56-46.51,46.48.21,25.74,20.43,46.42,46.34,46.54a46.51,46.51,0,1,0,.17-93ZM1696,233.34c-.74,7.21-5.91,11.35-12.63,12.89-2.29.53-2.3.49-2.3,2.84,0,1,0,1.93,0,2.88-.09,1.24-.52,1.66-1.74,1.68-1.77,0-3.54,0-5.31,0-1.43,0-1.93-.57-2-2,0-1.19-.06-2.39,0-3.58.06-1-.3-1.41-1.31-1.6a19.13,19.13,0,0,1-8-3.47,13.54,13.54,0,0,1-5.29-9,16.63,16.63,0,0,1-.24-3.79c.06-1.19.52-1.69,1.7-1.73s2.31,0,3.47,0v0h2.77c1.84,0,2.24.41,2.3,2.22a10.52,10.52,0,0,0,.09,1.26c.62,3.68,3.09,5.93,7.14,6.37a15,15,0,0,0,6.07-.44c2.48-.76,4.34-2.2,4.82-4.89a6.2,6.2,0,0,0-3.17-6.85,28,28,0,0,0-6.78-2.88,31.38,31.38,0,0,1-11.17-5.32,13.44,13.44,0,0,1-5.2-10.49c-.16-4.18.83-7.93,3.74-11a15.35,15.35,0,0,1,8.46-4.65c1.27-.25,1.62-.8,1.55-2a42.22,42.22,0,0,1,0-4.5c.06-1.48.6-2,2.09-2s3.16,0,4.73,0c1.34,0,1.68.38,1.7,1.76,0,1.77,0,3.54,0,5.31,0,.87.35,1.2,1.14,1.39,7.82,1.92,12.33,7.29,13,15.37.19,2.43-.28,2.95-2.7,3-1.81,0-3.62,0-5.42,0s-2.28-.54-2.3-2.29a8.57,8.57,0,0,0-2-5.55c-2-2.41-4.75-2.77-7.67-2.37-2.32.31-4.37,1.12-5.32,3.47-1.27,3.13-.83,6.6,2.42,8.61,2.78,1.73,5.9,2.57,9,3.6a32.77,32.77,0,0,1,8.67,4.24C1695,223.08,1696.52,227.8,1696,233.34Z"/><path class="cls-59" d="M1690.28,219.69a32.77,32.77,0,0,0-8.67-4.24c-3.06-1-6.18-1.87-9-3.6-3.25-2-3.69-5.48-2.42-8.61,1-2.35,3-3.16,5.32-3.47,2.92-.4,5.63,0,7.67,2.37a8.57,8.57,0,0,1,2,5.55c0,1.75.56,2.27,2.3,2.29s3.61,0,5.42,0c2.42,0,2.89-.54,2.7-3-.63-8.08-5.14-13.45-13-15.37-.79-.19-1.16-.52-1.14-1.39.06-1.77,0-3.54,0-5.31,0-1.38-.36-1.74-1.7-1.76-1.57,0-3.15,0-4.73,0s-2,.53-2.09,2a42.22,42.22,0,0,0,0,4.5c.07,1.21-.28,1.76-1.55,2a15.35,15.35,0,0,0-8.46,4.65c-2.91,3.11-3.9,6.86-3.74,11a13.44,13.44,0,0,0,5.2,10.49,31.38,31.38,0,0,0,11.17,5.32,28,28,0,0,1,6.78,2.88,6.2,6.2,0,0,1,3.17,6.85c-.48,2.69-2.34,4.13-4.82,4.89a15,15,0,0,1-6.07.44c-4.05-.44-6.52-2.69-7.14-6.37a10.52,10.52,0,0,1-.09-1.26c-.06-1.81-.46-2.2-2.3-2.22h-2.77v0c-1.16,0-2.31,0-3.47,0s-1.64.54-1.7,1.73a16.63,16.63,0,0,0,.24,3.79,13.54,13.54,0,0,0,5.29,9,19.13,19.13,0,0,0,8,3.47c1,.19,1.37.6,1.31,1.6-.07,1.19,0,2.39,0,3.58,0,1.42.52,2,2,2,1.77,0,3.54,0,5.31,0,1.22,0,1.65-.44,1.74-1.68.06-.95,0-1.92,0-2.88,0-2.35,0-2.31,2.3-2.84,6.72-1.54,11.89-5.68,12.63-12.89C1696.52,227.8,1695,223.08,1690.28,219.69Z"/><line class="cls-60" x1="1707.35" y1="188.72" x2="1646.39" y2="249.67"/><line class="cls-60" x1="1707.35" y1="249.67" x2="1646.39" y2="188.72"/><circle class="cls-61" cx="1676.87" cy="216.8" r="42.59"/><circle class="cls-62" cx="1676.87" cy="420.34" r="176.29" transform="translate(-15.13 65.77) rotate(-2.24)"/><path class="cls-14" d="M1591.77,688.72a7.82,7.82,0,0,1-6.92-11.44l48.52-93.71a7.81,7.81,0,1,1,13.86,7.22L1598.7,684.5A7.79,7.79,0,0,1,1591.77,688.72Z"/><path class="cls-14" d="M1793.26,666.2h-19.65l4.13,8a14.51,14.51,0,1,1-25.74,13.4l-11.07-21.39H1615.72l-11.08,21.39a14.51,14.51,0,1,1-25.73-13.4l4.13-8h-22.62a16.65,16.65,0,0,0-16.63,16.68v16.68a16.65,16.65,0,0,0,16.63,16.68l16.63,100.06h199.58l16.63-100.06a16.65,16.65,0,0,0,16.63-16.68V682.88A16.65,16.65,0,0,0,1793.26,666.2ZM1618.63,791.28a8.32,8.32,0,1,1-16.64,0v-50a8.32,8.32,0,1,1,16.64,0Zm33.26,0a8.32,8.32,0,1,1-16.63,0v-50a8.32,8.32,0,1,1,16.63,0Zm33.26,0a8.32,8.32,0,1,1-16.63,0v-50a8.32,8.32,0,1,1,16.63,0Zm33.27,0a8.32,8.32,0,1,1-16.63,0v-50a8.32,8.32,0,1,1,16.63,0Zm33.26,0a8.32,8.32,0,1,1-16.63,0v-50a8.32,8.32,0,1,1,16.63,0Z"/><path class="cls-14" d="M1764.88,688.72a7.82,7.82,0,0,0,6.92-11.44l-48.53-93.71a7.81,7.81,0,1,0-13.85,7.22l48.52,93.71A7.82,7.82,0,0,0,1764.88,688.72Z"/><g id="ePzQXg.tif"><path class="cls-14" d="M1764.76,813.36c-1.09,3.31,0,5.31,3.09,7.2,14.43,9,28.71,18.13,43,27.33,2.58,1.66,4.79,2.15,7.84,1,7.26-2.84,14.69-5.27,22.1-7.72,5.35-1.77,7.19-.86,9.08,4.44q11.55,32.37,23,64.8c2,5.58,1,7.35-4.62,9.31q-70.12,24.3-140.27,48.58c-6.32,2.19-7.64,1.49-9.9-4.86q-11.28-31.68-22.55-63.36c-2.42-6.83-1.79-8,5.28-10.46,6.91-2.39,13.75-5,20.72-7.14a7.7,7.7,0,0,0,5.64-5.52q8.13-24.34,16.61-48.59c.85-2.46,1-4.25-1.35-6.05a10.37,10.37,0,0,1-3.53-7l7-.53a5.84,5.84,0,0,0,6.09,4.62c3.39-.1,5.19-2.33,5.87-5.52Zm75.72,37.85c-1.65.48-2.46.68-3.25.95q-64.05,22.19-128.14,44.29c-3.75,1.29-4,2.89-2.8,6.12,6.16,17,12.37,34,18.11,51.22,1.56,4.69,3.58,4.72,7.5,3.33,16.75-6,33.57-11.7,50.37-17.52q38.38-13.3,76.79-26.56c2.53-.87,4.22-1.6,3.06-4.83-6.45-18-12.77-36-19.21-54C1842.41,852.82,1842.19,850.61,1840.48,851.21Zm-107,26.37c.87.52,1.62.12,2.4-.15q33.43-11.58,66.87-23.2c1.16-.4,3.08-.15,3.29-1.75.24-1.85-1.81-2.17-3-2.91q-16-10.29-32-20.41c-5.1-3.21-9.58-7.94-16.84-3.5-2.46,1.51-4.53,2.18-5.52,5.18-4.65,14-9.54,28-14.28,42C1733.91,874.38,1732.79,875.83,1733.49,877.58Z"/><path class="cls-14" d="M1725,922.68c-.49-7.54,7.29-15.25,14.93-14.91,1.49.07,2.12.67,2.23,2s-.34,2.3-1.85,2.39a12.54,12.54,0,0,0-6.91,2.55c-3.35,2.58-4.1,7-1.93,11.24a8.28,8.28,0,0,0,10,4.42c1.47-.49,3.57-.85,3-3.18-.41-1.78-.32-4.4-3.38-3.82-1.75.33-2.58-.46-2.81-1.93-.27-1.73,1.32-1.75,2.35-1.91,2.35-.36,4.95-3.95,7,.66,4,9,3.95,10.23-1.52,12.65-3.17,1.41-6.38,2.83-10,2.35C1729.41,934.36,1725.43,929.9,1725,922.68Z"/><path class="cls-14" d="M1759.71,901.07c6.44-.49,9.59,3.7,7,9.85-.78,1.88-.53,2.54,1,3.47,2.2,1.33,3.42,3.59,4.8,5.66.68,1,2.08,2.2.24,3.3-1.45.86-3.14,1.42-4.49-.27s-2.48-3.54-3.89-5.16a3.75,3.75,0,0,0-5-.68c-1.73,1-.77,2.64-.36,4a21.56,21.56,0,0,0,1.33,3.74c1,1.84.38,2.6-1.44,3.25-1.66.59-2.72.85-3.42-1.24-2.23-6.6-4.53-13.18-7-19.71-.64-1.69-.14-2.57,1.23-3.15C1753,902.8,1756.15,901.33,1759.71,901.07Zm-5,7.79c1.2,1.32.12,4.88,3.58,4.55,2.65-.25,4.82-1.79,4.54-4.83a3.69,3.69,0,0,0-4.48-3.53C1756.41,905.3,1754.22,905.66,1754.68,908.86Z"/><path class="cls-14" d="M1777.49,908.73c-.06-3.31,0-6.65-.24-9.94-.23-2.47.22-4.08,2.8-4.92s4.53-.83,6.35,1.82c3.65,5.33,7.74,10.35,11.57,15.57.72,1,2.87,2.23.63,3.46-1.47.8-3.57,2.43-5.08-.38-1.62-3-3.67-4.16-7.24-2.57-2.51,1.12-3.82,2.29-3.37,5.1.35,2.24-.31,4.14-2.87,4.3-3.14.18-1.92-2.51-2.15-4-.42-2.78-.48-5.61-.69-8.42Zm4.36-10c-.89,2.79-.16,5-.08,7.29,0,1.12,0,2.61,1.59,2.62a5.12,5.12,0,0,0,4.09-1.41c1.07-1.24-.2-2.16-.83-3C1785.23,902.45,1784.33,900.23,1781.85,898.7Z"/><path class="cls-14" d="M1836.07,901.19c-2.71.36-4.32.64-4.6-1.53-.24-1.92,1.24-2,2.59-2.2a6,6,0,0,0,1.47-.24c2.25-.88,5.42-1.25,5.14-4.44-.26-3-3.16-2.79-5.49-2.94a34.82,34.82,0,0,1-3.94-.52c-2.81-.54-4.93-2-5.68-4.87a6.9,6.9,0,0,1,2.25-7.19,13,13,0,0,1,8.63-3.28,1.86,1.86,0,0,1,2.21,1.53,1.82,1.82,0,0,1-1.8,2.38,10,10,0,0,0-2,.3c-1.9.62-4.07,1.24-4.1,3.68,0,2.84,2.45,2.63,4.35,3a16,16,0,0,0,2.47.27c4.25,0,7.53,1.43,8.28,6.12s-2,7.1-5.76,8.72A30.69,30.69,0,0,1,1836.07,901.19Z"/><path class="cls-14" d="M1791.15,891c-.36-1.44,1-1.32,1.82-1.61q7-2.53,14.06-4.92c1.18-.4,2.57-1.17,3.12,1,.42,1.66-.18,2.64-1.73,2.93-4.87.89-3.81,3.76-2.56,7,1.57,4,2.86,8.13,4.37,12.16.59,1.59.92,2.91-1.17,3.51-1.75.5-3.13.56-3.86-1.7-1.53-4.73-3.38-9.35-5-14.06-.81-2.45-1.75-3.73-4.61-2.38C1793.89,893.7,1791.57,894.44,1791.15,891Z"/><path class="cls-14" d="M1826.18,902.67c.76,1.93-.8,2.08-2,2.62-1.39.64-2.5.82-3.13-1q-3.61-10.27-7.28-20.53c-.64-1.79.4-2.43,1.82-2.79s2.63-.63,3.26,1.15Q1822.5,892.43,1826.18,902.67Z"/></g><rect class="cls-63" x="1492.64" y="1055.92" width="389.06" height="182.76" rx="21.57" ry="21.57"/><text class="cls-22" transform="translate(1532.98 1138.58)">Alt det du finder på REUSE er helt gratis, og du kan tage <tspan x="0" y="14.4">det med hjem. Finder du så meget at du ikke kan bære </tspan><tspan x="0" y="28.8">det hjem, har vi også en christiania cykel du kan låne.</tspan></text></g></g></svg>