<svg xmlns="http://www.w3.org/2000/svg" viewBox="0 0 159.42 109.95"><defs><style>.cls-1{fill:#fff;}</style></defs><title>Skole-hvid</title><g id="Layer_2" data-name="Layer 2"><g id="Layer_1-2" data-name="Layer 1"><g id="tR7E4K.tif"><path class="cls-1" d="M79.64,110H2.36C0,110,0,109.92,0,107.6c0-4.62-.63-4,4.13-4q26.1,0,52.2,0c.89,0,1.94.28,2-1.28,0-1.25-.57-1.46-1.63-1.46-6.06,0-12.13,0-18.19,0-10.34,0-20.69,0-31,0-1.44,0-1.9-.47-1.89-1.9,0-4.49,0-4.49,4.43-4.49,2.51,0,2.51,0,2.51-2.45q0-23.52,0-47c0-2.22,0-2.25,2.3-2.25H56.17c2.09,0,2.2,0,2.07-2.08A3.7,3.7,0,0,1,60,37.05c6.14-4.34,12.22-8.78,18.28-13.24a1.89,1.89,0,0,1,2.62,0q9.65,7,19.37,13.85c1.13.8,1,1.83,1,2.92,0,2.16,0,2.17,2.19,2.17h41.07c2.44,0,2.48,0,2.48,2.4q0,23.6,0,47.18c0,2.11,0,2.13,2,2.14,1.21,0,2.41,0,3.61,0A1.08,1.08,0,0,1,154,95.72s0,.11,0,.16c0,6,.76,4.93-4.6,5-15.36,0-30.72,0-46.08,0-.76,0-1.77-.37-2,.93s.16,1.78,1.74,1.78h54.24c2,0,2.06,0,2.07,2.13,0,4.21,0,4.22-4.07,4.23Zm6.94-26.16c0-3.29,0-6.58,0-9.87a7,7,0,1,0-14,0c0,6.84,0,13.68,0,20.53,0,1.14.36,1.56,1.53,1.55,3.6,0,7.21-.06,10.81,0,1.33,0,1.74-.48,1.72-1.75C86.54,90.8,86.58,87.29,86.58,83.79Zm-6.74-51a8,8,0,1,0-.18,15.92,8,8,0,0,0,8.11-7.82A7.86,7.86,0,0,0,79.84,32.79Zm45.85,45.15h0c0-1.51,0-3,0-4.53,0-1-.31-1.45-1.35-1.42-1.45,0-2.91,0-4.37,0-1,0-1.4.41-1.39,1.4,0,3,0,6,0,9.06,0,1.1.48,1.48,1.52,1.46,1.4,0,2.81,0,4.21,0,1,0,1.39-.43,1.36-1.42C125.66,81,125.69,79.45,125.69,77.94Zm-11.25,0h0c0-1.57,0-3.13,0-4.69,0-.85-.36-1.24-1.22-1.23q-2.34,0-4.68,0c-.88,0-1.19.43-1.18,1.26,0,3.13,0,6.25,0,9.38,0,.84.36,1.26,1.21,1.25,1.51,0,3,0,4.53,0,1,0,1.37-.49,1.35-1.45C114.41,80.94,114.44,79.43,114.44,77.92Zm-69.76,0c0,1.57,0,3.13,0,4.69,0,.94.39,1.33,1.3,1.32q2.19,0,4.38,0c1,0,1.44-.38,1.43-1.39,0-3.07,0-6.15,0-9.22,0-.94-.43-1.31-1.33-1.3-1.46,0-2.92,0-4.38,0-1,0-1.43.34-1.4,1.37C44.71,74.87,44.67,76.38,44.68,77.89Zm-4,.07c0-1.51,0-3,0-4.53,0-1-.28-1.47-1.33-1.44-1.51,0-3,0-4.53,0-.86,0-1.23.37-1.23,1.22,0,3.13,0,6.25,0,9.38,0,.82.34,1.27,1.2,1.27h4.69c.85,0,1.22-.4,1.21-1.24C40.69,81.08,40.71,79.52,40.71,78Zm-18.33,0c0,1.57,0,3.13,0,4.7,0,.85.37,1.25,1.21,1.25l4.55,0c.9,0,1.33-.38,1.33-1.32q0-4.62,0-9.24c0-.92-.37-1.34-1.3-1.33-1.46,0-2.92,0-4.38,0-1,0-1.44.37-1.41,1.39C22.4,74.89,22.38,76.41,22.38,77.92ZM125.7,60.82h0c0-1.61,0-3.23,0-4.84,0-.85-.33-1.27-1.19-1.26h-4.69c-.86,0-1.21.43-1.21,1.26,0,3.13,0,6.25,0,9.38,0,1,.49,1.27,1.37,1.26,1.46,0,2.92,0,4.38,0,1,0,1.38-.44,1.35-1.42C125.66,63.74,125.7,62.28,125.7,60.82Zm-18.33-.14h0c0,1.56,0,3.12,0,4.68,0,.84.33,1.25,1.19,1.25,1.51,0,3,0,4.53,0,1,0,1.38-.44,1.37-1.42,0-3,0-6,0-9.05,0-1.1-.48-1.48-1.52-1.44-1.4,0-2.81,0-4.21,0-1,0-1.38.44-1.35,1.42C107.4,57.66,107.37,59.17,107.37,60.68Zm-62.69,0h0c0,1.57,0,3.13,0,4.69,0,.83.29,1.27,1.17,1.27,1.56,0,3.12,0,4.69,0a1.07,1.07,0,0,0,1.24-1.23c0-3.12,0-6.24,0-9.37,0-.92-.44-1.31-1.35-1.29-1.51,0-3,0-4.53,0-.85,0-1.22.38-1.2,1.24C44.7,57.53,44.68,59.09,44.68,60.65Zm-4-.13c0-1.52,0-3,0-4.54,0-.87-.37-1.25-1.22-1.25-1.51,0-3,0-4.54,0-.91,0-1.34.39-1.34,1.31q0,4.63,0,9.25c0,.93.41,1.33,1.33,1.32,1.46,0,2.92,0,4.38,0,1,0,1.43-.39,1.4-1.4C40.68,63.65,40.71,62.09,40.71,60.52Zm-11.27.15h0c0-1.51,0-3,0-4.53,0-1-.32-1.45-1.35-1.42-1.46,0-2.92,0-4.37,0-1,0-1.39.42-1.38,1.41,0,3,0,6,0,9.06,0,1.09.46,1.48,1.5,1.44,1.41,0,2.81-.05,4.22,0,1,0,1.39-.42,1.36-1.41C29.41,63.69,29.44,62.18,29.44,60.67ZM136.77,77.92c0-1.51,0-3,0-4.53,0-1-.42-1.41-1.41-1.39-1.46,0-2.91,0-4.37,0-.9,0-1.34.37-1.34,1.3q0,4.53,0,9c0,1.15.58,1.58,1.66,1.56,1.3,0,2.6,0,3.9,0,1.14,0,1.58-.5,1.56-1.61C136.74,80.83,136.77,79.38,136.77,77.92Zm0-17.16h0c0-1.51,0-3,0-4.53,0-1-.37-1.55-1.46-1.52-1.41,0-2.81,0-4.22,0-1.09,0-1.52.44-1.44,1.5.23,3.11-.15,6.24.11,9.36.07.87.41,1.06,1.14,1.06,1.51,0,3,0,4.53,0,.92,0,1.34-.4,1.32-1.32C136.74,63.78,136.76,62.27,136.76,60.76Z"/><path class="cls-1" d="M86.64.1c2.2,0,4.39,0,6.58,0,1.15,0,1.6.44,1.58,1.57,0,1.94-.07,3.87,0,5.8.06,1.4-.4,2-1.88,1.92-3.23-.1-6.47-.06-9.71,0-.75,0-1.93-.5-2.13.66s-.61,2.64.66,3.63c1.69,1.32,3.4,2.61,5.12,3.89q9.78,7.34,19.58,14.63a3.2,3.2,0,0,1,1.56,3c-.1,1.35,0,2.71,0,4.07,0,.4.16.91-.3,1.13s-.76-.21-1.09-.45q-6.3-4.65-12.6-9.31c-4.24-3.14-8.51-6.25-12.69-9.46a2.19,2.19,0,0,0-3.15.06c-8.33,6.38-16.72,12.69-25.1,19-.41.31-.8.91-1.33.67s-.25-1-.34-1.55c-.74-4.29,1-7,4.64-9.51,7.29-5,14.18-10.52,21.27-15.78a3,3,0,0,0,1.37-2.75c-.08-3.18,0-6.37,0-9.56C78.64.43,79.1-.1,80.53,0c2,.16,4.07,0,6.11,0Z"/><path class="cls-1" d="M77.58,42.85c-1.09-.05-2.19-.07-3.28-.17-.67-.07-1.21-.43-1.17-1.2a1.1,1.1,0,0,1,1.16-1c1.2-.08,2.39-.12,3.59-.11s1.53-.45,1.5-1.51c0-.88,0-1.77,0-2.65s.28-1.53,1.23-1.5,1,.75,1,1.47c.23,1.82-.09,3.64,0,5.46a1,1,0,0,1-1.12,1.17c-1,0-2,0-3,0Z"/></g></g></g></svg>