<svg xmlns="http://www.w3.org/2000/svg" viewBox="0 0 93.02 99.83"><defs><style>.cls-1{fill:#00747e;}</style></defs><title>Telefon-bla</title><g id="Layer_2" data-name="Layer 2"><g id="Layer_1-2" data-name="Layer 1"><g id="ojvNlk.tif"><path class="cls-1" d="M20.89,0a7.37,7.37,0,0,1,2.59.8,13.09,13.09,0,0,1,3.45,2.84,52.84,52.84,0,0,1,5.13,7.29,52,52,0,0,1,3.25,5.6A17.52,17.52,0,0,1,37,22.08a9.11,9.11,0,0,1-1.91,6.8,18.06,18.06,0,0,1-2.73,2.66,33,33,0,0,1-3.77,3.09,13.37,13.37,0,0,0-1.67,1.24,7.13,7.13,0,0,0-2.68,5.56,14,14,0,0,0,1.27,5.62,37,37,0,0,0,3.81,6.67,88.1,88.1,0,0,0,6.35,8c1.55,1.75,3.17,3.45,4.87,5.06a39.39,39.39,0,0,0,6.52,5.13,15.15,15.15,0,0,0,4.66,1.94A7.28,7.28,0,0,0,58.42,72a22.08,22.08,0,0,0,1.72-1.77,22.57,22.57,0,0,1,2.33-2.15c1-.84,1.9-1.73,2.94-2.49a9.42,9.42,0,0,1,5.13-1.9,11,11,0,0,1,4.83.95,26,26,0,0,1,6.43,4.13c1.8,1.51,3.59,3,5.35,4.6a23.13,23.13,0,0,1,4.65,5.27A9.07,9.07,0,0,1,93,81.89V83.3a7.83,7.83,0,0,1-2.75,4.62c-1,.87-2,1.73-3,2.61-.79.71-1.54,1.46-2.34,2.14a29.88,29.88,0,0,1-7,4.4,31.21,31.21,0,0,1-12,2.74,33.33,33.33,0,0,1-5.82-.35,40.34,40.34,0,0,1-9-2.41A55.08,55.08,0,0,1,40.4,91.37,90.11,90.11,0,0,1,27.55,80.76c-1.49-1.46-2.92-3-4.34-4.51q-3.13-3.42-6.05-7A100.81,100.81,0,0,1,6.61,53.57,58.49,58.49,0,0,1,1.05,39.13a41.3,41.3,0,0,1-1-7.9,32.48,32.48,0,0,1,.1-3.69A33,33,0,0,1,1,22,30.57,30.57,0,0,1,5.47,12,28.1,28.1,0,0,1,11,6C12.19,5,13.35,4,14.5,3a18.62,18.62,0,0,1,2.19-1.77A7.71,7.71,0,0,1,20.06,0Z"/></g></g></g></svg>