<svg xmlns="http://www.w3.org/2000/svg" viewBox="0 0 42.39 45.98"><defs><style>.cls-1{fill:#fff;}</style></defs><title>Telefon-hvid</title><g id="Layer_2" data-name="Layer 2"><g id="Layer_1-2" data-name="Layer 1"><g id="ojvNlk.tif"><path class="cls-1" d="M9.52,0A3.07,3.07,0,0,1,10.7.37a5.8,5.8,0,0,1,1.57,1.31A24.22,24.22,0,0,1,14.61,5a23.56,23.56,0,0,1,1.48,2.58,8.25,8.25,0,0,1,.78,2.56A4.23,4.23,0,0,1,16,13.3a8.55,8.55,0,0,1-1.25,1.23A15.83,15.83,0,0,1,13,16a6.85,6.85,0,0,0-.76.57,3.28,3.28,0,0,0-1.22,2.56,6.61,6.61,0,0,0,.58,2.59,17.21,17.21,0,0,0,1.74,3.07,39.38,39.38,0,0,0,2.89,3.66c.71.81,1.44,1.59,2.22,2.33a17.31,17.31,0,0,0,3,2.36,6.67,6.67,0,0,0,2.13.9,3.3,3.3,0,0,0,3-.83c.28-.26.54-.54.79-.82a11,11,0,0,1,1.06-1c.44-.39.87-.8,1.34-1.15a4.22,4.22,0,0,1,2.34-.87,4.93,4.93,0,0,1,2.2.44,11.69,11.69,0,0,1,2.93,1.9c.82.69,1.64,1.4,2.44,2.12a10.71,10.71,0,0,1,2.12,2.43,4,4,0,0,1,.55,1.49v.65a3.57,3.57,0,0,1-1.25,2.13l-1.35,1.2c-.36.33-.7.68-1.07,1a13.43,13.43,0,0,1-3.18,2A14.07,14.07,0,0,1,30.05,46a14.69,14.69,0,0,1-2.65-.17,18.27,18.27,0,0,1-4.1-1.1,25.28,25.28,0,0,1-4.89-2.62,40.24,40.24,0,0,1-5.85-4.89c-.68-.67-1.34-1.37-2-2.07q-1.44-1.57-2.76-3.24A46.64,46.64,0,0,1,3,24.67,27.16,27.16,0,0,1,.48,18,19.4,19.4,0,0,1,0,14.38a16.14,16.14,0,0,1,0-1.7,15.82,15.82,0,0,1,.41-2.57,14.12,14.12,0,0,1,2-4.57A12.85,12.85,0,0,1,5,2.76c.55-.45,1.07-.9,1.6-1.37a7.7,7.7,0,0,1,1-.81A3.41,3.41,0,0,1,9.14,0Z"/></g></g></g></svg>