<svg xmlns="http://www.w3.org/2000/svg" viewBox="0 0 94.03 94.04"><defs><style>.cls-1{fill:#00747e;}</style></defs><title>Ur-bla</title><g id="Layer_2" data-name="Layer 2"><g id="Layer_1-2" data-name="Layer 1"><path class="cls-1" d="M47,0A47,47,0,1,0,94,47,47,47,0,0,0,47,0Zm0,85.91A38.89,38.89,0,1,1,85.91,47,38.94,38.94,0,0,1,47,85.91Z"/><path class="cls-1" d="M44.42,16.08h5.19v9H44.42ZM25.07,49.61h-9V44.42h9v5.19ZM49.61,78H44.42V69h5.19Zm.57-31.5L48,63.58,43.36,42.9h0v0h0L61.71,30ZM69,49.61V44.42h9v5.19Z"/></g></g></svg>