<svg xmlns="http://www.w3.org/2000/svg" viewBox="0 0 45.98 45.98"><defs><style>.cls-1{fill:#fff;}</style></defs><title>Ur-hvid</title><g id="Layer_2" data-name="Layer 2"><g id="Layer_1-2" data-name="Layer 1"><path class="cls-1" d="M23,0A23,23,0,1,0,46,23,23,23,0,0,0,23,0Zm0,42A19,19,0,1,1,42,23,19,19,0,0,1,23,42Z"/><path class="cls-1" d="M21.72,7.86h2.53v4.39H21.72Zm-9.47,16.4H7.86V21.72h4.39v2.54Zm12,13.86H21.72v-4.4h2.53Zm.28-15.41-1.06,8.37L21.2,21h0l9-6.28Zm9.19,1.55V21.72h4.4v2.54Z"/></g></g></svg>